<svg width="24" height="24" viewBox="0 0 24 24" fill="none" xmlns="http://www.w3.org/2000/svg">
<path fill-rule="evenodd" clip-rule="evenodd" d="M2 3C2 2.73478 2.10536 2.48043 2.29289 2.29289C2.48043 2.10536 2.73478 2 3 2H3.768C4.23533 2.00018 4.68784 2.16401 5.04697 2.46304C5.4061 2.76208 5.64918 3.17743 5.734 3.637L5.986 5H19.743C20.0439 4.99996 20.341 5.06782 20.612 5.19852C20.8831 5.32923 21.1211 5.51941 21.3084 5.7549C21.4958 5.99039 21.6276 6.26512 21.694 6.55861C21.7604 6.8521 21.7597 7.1568 21.692 7.45L19.846 15.45C19.7442 15.8908 19.4959 16.2841 19.1418 16.5656C18.7876 16.8472 18.3484 17.0003 17.896 17H7.019C6.77904 17.0044 6.54549 16.9224 6.36098 16.769C6.17647 16.6155 6.05332 16.4008 6.014 16.164L3.768 4H3C2.73478 4 2.48043 3.89464 2.29289 3.70711C2.10536 3.51957 2 3.26522 2 3ZM7.832 15H17.897L19.743 7H6.355L7.832 15ZM8 18C7.46957 18 6.96086 18.2107 6.58579 18.5858C6.21071 18.9609 6 19.4696 6 20C6 20.5304 6.21071 21.0391 6.58579 21.4142C6.96086 21.7893 7.46957 22 8 22C8.53043 22 9.03914 21.7893 9.41421 21.4142C9.78929 21.0391 10 20.5304 10 20C10 19.4696 9.78929 18.9609 9.41421 18.5858C9.03914 18.2107 8.53043 18 8 18ZM18 18C17.4696 18 16.9609 18.2107 16.5858 18.5858C16.2107 18.9609 16 19.4696 16 20C16 20.5304 16.2107 21.0391 16.5858 21.4142C16.9609 21.7893 17.4696 22 18 22C18.5304 22 19.0391 21.7893 19.4142 21.4142C19.7893 21.0391 20 20.5304 20 20C20 19.4696 19.7893 18.9609 19.4142 18.5858C19.0391 18.2107 18.5304 18 18 18Z" fill="#666666"/>
</svg>
