<svg width="88" height="88" viewBox="0 0 88 88" fill="none" xmlns="http://www.w3.org/2000/svg">
<rect width="88" height="88" rx="12" fill="white"/>
<rect width="88" height="88" rx="12" fill="#F1F1F1"/>
<rect x="0.502363" y="0.49761" width="22.0707" height="27.8783" rx="4.5" transform="matrix(0.999989 -0.00476795 0.00473747 0.999989 24.4976 18.1259)" fill="#F1F1F1" stroke="black"/>
<rect x="0.386959" y="0.591708" width="24.177" height="30.5167" rx="4.5" transform="matrix(0.978838 0.204638 -0.204919 0.978779 37.9853 12.4334)" fill="#F1F1F1" stroke="black"/>
<path d="M11.526 70.5V60.7H19.968V70.5H18.596V61.554L18.932 61.918H12.562L12.912 61.554V70.5H11.526ZM25.978 70.584C25.2314 70.584 24.5687 70.4207 23.99 70.094C23.4114 69.7673 22.954 69.3193 22.618 68.75C22.282 68.1713 22.114 67.518 22.114 66.79C22.114 66.0527 22.282 65.3993 22.618 64.83C22.954 64.2607 23.4114 63.8173 23.99 63.5C24.5687 63.1733 25.2314 63.01 25.978 63.01C26.7154 63.01 27.3734 63.1733 27.952 63.5C28.54 63.8173 28.9974 64.2607 29.324 64.83C29.66 65.39 29.828 66.0433 29.828 66.79C29.828 67.5273 29.66 68.1807 29.324 68.75C28.9974 69.3193 28.54 69.7673 27.952 70.094C27.3734 70.4207 26.7154 70.584 25.978 70.584ZM25.978 69.408C26.454 69.408 26.8787 69.3007 27.252 69.086C27.6347 68.8713 27.9334 68.568 28.148 68.176C28.3627 67.7747 28.47 67.3127 28.47 66.79C28.47 66.258 28.3627 65.8007 28.148 65.418C27.9334 65.026 27.6347 64.7227 27.252 64.508C26.8787 64.2933 26.454 64.186 25.978 64.186C25.502 64.186 25.0774 64.2933 24.704 64.508C24.3307 64.7227 24.032 65.026 23.808 65.418C23.584 65.8007 23.472 66.258 23.472 66.79C23.472 67.3127 23.584 67.7747 23.808 68.176C24.032 68.568 24.3307 68.8713 24.704 69.086C25.0774 69.3007 25.502 69.408 25.978 69.408ZM30.3467 70.5L33.5387 66.356L33.5247 67.042L30.4867 63.08H31.9847L34.3087 66.132H33.7347L36.0587 63.08H37.5287L34.4487 67.07L34.4627 66.356L37.6827 70.5H36.1567L33.7067 67.252L34.2527 67.336L31.8447 70.5H30.3467ZM42.0288 70.584C41.2822 70.584 40.6195 70.4207 40.0408 70.094C39.4622 69.7673 39.0048 69.3193 38.6688 68.75C38.3328 68.1713 38.1648 67.518 38.1648 66.79C38.1648 66.0527 38.3328 65.3993 38.6688 64.83C39.0048 64.2607 39.4622 63.8173 40.0408 63.5C40.6195 63.1733 41.2822 63.01 42.0288 63.01C42.7662 63.01 43.4242 63.1733 44.0028 63.5C44.5908 63.8173 45.0482 64.2607 45.3748 64.83C45.7108 65.39 45.8788 66.0433 45.8788 66.79C45.8788 67.5273 45.7108 68.1807 45.3748 68.75C45.0482 69.3193 44.5908 69.7673 44.0028 70.094C43.4242 70.4207 42.7662 70.584 42.0288 70.584ZM42.0288 69.408C42.5048 69.408 42.9295 69.3007 43.3028 69.086C43.6855 68.8713 43.9842 68.568 44.1988 68.176C44.4135 67.7747 44.5208 67.3127 44.5208 66.79C44.5208 66.258 44.4135 65.8007 44.1988 65.418C43.9842 65.026 43.6855 64.7227 43.3028 64.508C42.9295 64.2933 42.5048 64.186 42.0288 64.186C41.5528 64.186 41.1282 64.2933 40.7548 64.508C40.3815 64.7227 40.0828 65.026 39.8588 65.418C39.6348 65.8007 39.5228 66.258 39.5228 66.79C39.5228 67.3127 39.6348 67.7747 39.8588 68.176C40.0828 68.568 40.3815 68.8713 40.7548 69.086C41.1282 69.3007 41.5528 69.408 42.0288 69.408ZM56.3795 70.5L54.0135 66.888L55.1195 66.216L57.9755 70.5H56.3795ZM52.4735 67.364V66.216H54.8815V67.364H52.4735ZM55.2455 66.944L53.9715 66.776L56.3375 63.08H57.7795L55.2455 66.944ZM48.0495 70.5H46.4535L49.2955 66.216L50.4015 66.888L48.0495 70.5ZM52.8795 70.5H51.5355V63.08H52.8795V70.5ZM51.9415 67.364H49.5475V66.216H51.9415V67.364ZM49.1835 66.944L46.6495 63.08H48.0775L50.4435 66.776L49.1835 66.944ZM59.4543 70.5V63.08H60.7983V68.484L65.3483 63.08H66.5663V70.5H65.2223V65.096L60.6863 70.5H59.4543ZM72.479 70.584C71.6857 70.584 70.9857 70.4207 70.379 70.094C69.7817 69.7673 69.315 69.3193 68.979 68.75C68.6524 68.1807 68.489 67.5273 68.489 66.79C68.489 66.0527 68.6477 65.3993 68.965 64.83C69.2917 64.2607 69.735 63.8173 70.295 63.5C70.8644 63.1733 71.5037 63.01 72.213 63.01C72.9317 63.01 73.5664 63.1687 74.117 63.486C74.6677 63.8033 75.097 64.2513 75.405 64.83C75.7224 65.3993 75.881 66.0667 75.881 66.832C75.881 66.888 75.8764 66.9533 75.867 67.028C75.867 67.1027 75.8624 67.1727 75.853 67.238H69.539V66.272H75.153L74.607 66.608C74.6164 66.132 74.5184 65.7073 74.313 65.334C74.1077 64.9607 73.823 64.6713 73.459 64.466C73.1044 64.2513 72.689 64.144 72.213 64.144C71.7464 64.144 71.331 64.2513 70.967 64.466C70.603 64.6713 70.3184 64.9653 70.113 65.348C69.9077 65.7213 69.805 66.1507 69.805 66.636V66.86C69.805 67.3547 69.917 67.798 70.141 68.19C70.3744 68.5727 70.6964 68.8713 71.107 69.086C71.5177 69.3007 71.989 69.408 72.521 69.408C72.9597 69.408 73.3564 69.3333 73.711 69.184C74.075 69.0347 74.3924 68.8107 74.663 68.512L75.405 69.38C75.069 69.772 74.649 70.0707 74.145 70.276C73.6504 70.4813 73.095 70.584 72.479 70.584Z" fill="black"/>
</svg>
