<svg width="365" height="82" viewBox="0 0 365 82" fill="none" xmlns="http://www.w3.org/2000/svg">
<mask id="mask0_502_8764" style="mask-type:luminance" maskUnits="userSpaceOnUse" x="0" y="0" width="366" height="82">
<path d="M365.002 0H0.00195312V82H365.002V0Z" fill="white"/>
</mask>
<g mask="url(#mask0_502_8764)">
<path d="M0.00195312 12.0586H62.4362V43.993C62.4362 52.1819 58.0924 59.7317 51.0299 63.8416L31.2191 75.562L11.4291 63.8416C4.3667 59.7623 0.0322635 52.1819 0.0322635 43.993V12.0586H0.00195312Z" fill="white"/>
<path fill-rule="evenodd" clip-rule="evenodd" d="M16.8105 28.8628V38.787C18.1745 37.2649 20.6297 36.2298 23.4183 36.2298H26.4797V47.7677C26.4797 50.8422 25.6613 53.5212 24.4186 55.0128H38.0142C36.7715 53.5212 36.0211 50.8422 36.0211 47.7677V36.2298H38.9987C41.8176 36.2298 44.2926 37.2649 45.6263 38.787V28.8628H16.8105Z" fill="#333333"/>
<path d="M348.193 27.4453H340.989V30.1197C330.896 30.338 324.18 34.6309 324.18 42.207C324.18 49.7828 330.896 53.7432 340.989 53.9612V56.6359H348.193V53.9612C358.341 53.7432 365.036 49.7828 365.036 42.207C365.036 34.6309 358.341 30.338 348.193 30.1197V27.4453ZM340.989 48.2793C335.447 48.0611 332.32 45.7769 332.32 42.207C332.32 38.6371 335.435 36.0773 340.989 35.8592V48.2793ZM348.193 35.8592C353.793 36.0773 356.83 38.6484 356.83 42.207C356.83 45.7653 353.793 48.0611 348.193 48.2793V35.8592Z" fill="#333333"/>
<path d="M304.968 27.4453H297.764V30.1197C287.672 30.338 280.955 34.6309 280.955 42.207C280.955 49.7828 287.672 53.7432 297.764 53.9612V56.6359H304.968V53.9612C315.116 53.7432 321.811 49.7828 321.811 42.207C321.811 34.6309 315.116 30.338 304.968 30.1197V27.4453ZM297.764 48.2793C292.222 48.0611 289.096 45.7769 289.096 42.207C289.096 38.6371 292.21 36.0773 297.764 35.8592V48.2793ZM304.968 35.8592C310.568 36.0773 313.606 38.6484 313.606 42.207C313.606 45.7653 310.568 48.0611 304.968 48.2793V35.8592Z" fill="#333333"/>
<path d="M261.325 28.2256C250.515 28.2256 244.021 34.3553 244.021 42.264C244.021 50.1729 250.515 56.3026 261.325 56.3026C272.136 56.3026 278.572 50.1729 278.572 42.264C278.572 34.3553 272.081 28.2256 261.325 28.2256ZM261.325 49.8401C255.942 49.8401 252.503 46.6146 252.503 42.264C252.503 37.9136 255.942 34.7456 261.325 34.7456C266.709 34.7456 270.148 37.9252 270.148 42.264C270.148 46.603 266.651 49.8401 261.325 49.8401Z" fill="#333333"/>
<path d="M223.971 45.4443L233.571 55.4767H244.28L230.908 41.6677L243.776 28.9722H233.685L223.982 38.9472H221.765V28.9722H213.719V55.4883H221.765V45.4559H223.982L223.971 45.4443Z" fill="#333333"/>
<path d="M198.8 55.4646C200.628 55.4646 202.297 55.2924 203.851 54.8564C208.012 53.6855 210.732 50.2878 210.732 45.6618C210.732 41.0358 208.4 38.2005 204.686 36.8002C202.914 36.1343 200.8 36.0769 198.811 36.0769H190.548V28.9487H182.502V55.4646H198.811H198.8ZM197.417 42.3215C198.525 42.3215 199.577 42.3215 200.526 42.6543C201.851 43.1019 202.629 44.2154 202.629 45.547C202.629 46.8785 201.851 48.1068 200.571 48.6692C199.68 49.0595 198.8 49.0595 197.405 49.0595H190.525V42.3215H197.405H197.417Z" fill="#333333"/>
<path d="M169.654 45.6112V55.4715H177.699V28.9556H169.654V39.4482H156.929V28.9556H148.883V55.4715H156.929V45.6112H169.654Z" fill="#333333"/>
<path d="M123.312 44.3768V28.9492H115.266V55.4651H122.363L136.037 40.0378V55.4651H144.081V28.9492H136.974L123.312 44.3768Z" fill="#333333"/>
<path d="M101.577 55.4713V36.1762H112.864V28.9409H81.6465V36.1762H92.9327V55.4713H101.577Z" fill="#333333"/>
</g>
</svg>
