<svg width="24" height="24" viewBox="0 0 24 24" fill="none" xmlns="http://www.w3.org/2000/svg">
<path fill-rule="evenodd" clip-rule="evenodd" d="M22 5V9.206C21.3456 9.2943 20.7455 9.61695 20.3109 10.1141C19.8763 10.6113 19.6368 11.2492 19.6368 11.9095C19.6368 12.5698 19.8763 13.2077 20.3109 13.7049C20.7455 14.202 21.3456 14.5247 22 14.613V19H2V14.636C2.72325 14.636 3.41687 14.3487 3.92828 13.8373C4.43969 13.3259 4.727 12.6322 4.727 11.909C4.727 11.1858 4.43969 10.4921 3.92828 9.98072C3.41687 9.46931 2.72325 9.182 2 9.182V5H22Z" stroke="#408BEB" stroke-width="1.818"/>
<path fill-rule="evenodd" clip-rule="evenodd" d="M7.97021 14.5475L14.5832 7.93555L16.0292 9.38155L9.41721 15.9935L7.97021 14.5475ZM9.10722 10.2085C9.40863 10.2085 9.69771 10.0888 9.91084 9.87567C10.124 9.66254 10.2437 9.37347 10.2437 9.07205C10.2437 8.77063 10.124 8.48155 9.91084 8.26842C9.69771 8.05528 9.40863 7.93555 9.10722 7.93555C8.8058 7.93555 8.51672 8.05528 8.30359 8.26842C8.09045 8.48155 7.97072 8.77063 7.97072 9.07205C7.97072 9.37347 8.09045 9.66254 8.30359 9.87567C8.51672 10.0888 8.8058 10.2085 9.10722 10.2085ZM14.8932 15.9935C15.1945 15.9935 15.4834 15.8739 15.6965 15.6608C15.9095 15.4478 16.0292 15.1588 16.0292 14.8575C16.0292 14.5563 15.9095 14.2673 15.6965 14.0543C15.4834 13.8412 15.1945 13.7215 14.8932 13.7215C14.5919 13.7215 14.303 13.8412 14.0899 14.0543C13.8769 14.2673 13.7572 14.5563 13.7572 14.8575C13.7572 15.1588 13.8769 15.4478 14.0899 15.6608C14.303 15.8739 14.5919 15.9935 14.8932 15.9935Z" fill="#408BEB"/>
</svg>
