<svg width="16" height="16" viewBox="0 0 16 16" fill="none" xmlns="http://www.w3.org/2000/svg">
<path d="M1.33325 3.99668C1.33325 3.63001 1.63059 3.33334 1.99659 3.33334H7.33659C7.51251 3.33334 7.68123 3.40323 7.80563 3.52763C7.93003 3.65203 7.99992 3.82075 7.99992 3.99668C7.99992 4.1726 7.93003 4.34133 7.80563 4.46572C7.68123 4.59012 7.51251 4.66001 7.33659 4.66001H1.99659C1.82066 4.66001 1.65194 4.59012 1.52754 4.46572C1.40314 4.34133 1.33325 4.1726 1.33325 3.99668ZM1.33325 8.00001C1.33325 7.63334 1.63059 7.33668 1.99659 7.33668H14.0033C14.1792 7.33668 14.3479 7.40656 14.4723 7.53096C14.5967 7.65536 14.6666 7.82408 14.6666 8.00001C14.6666 8.17594 14.5967 8.34466 14.4723 8.46906C14.3479 8.59346 14.1792 8.66334 14.0033 8.66334H1.99659C1.82066 8.66334 1.65194 8.59346 1.52754 8.46906C1.40314 8.34466 1.33325 8.17594 1.33325 8.00001ZM1.99659 11.34C1.82066 11.34 1.65194 11.4099 1.52754 11.5343C1.40314 11.6587 1.33325 11.8274 1.33325 12.0033C1.33325 12.1793 1.40314 12.348 1.52754 12.4724C1.65194 12.5968 1.82066 12.6667 1.99659 12.6667H10.0033C10.1792 12.6667 10.3479 12.5968 10.4723 12.4724C10.5967 12.348 10.6666 12.1793 10.6666 12.0033C10.6666 11.8274 10.5967 11.6587 10.4723 11.5343C10.3479 11.4099 10.1792 11.34 10.0033 11.34H1.99659Z" fill="white"/>
</svg>
