<svg width="246" height="60" viewBox="0 0 246 60" fill="none" xmlns="http://www.w3.org/2000/svg">
<path d="M38.226 9.68582L30.5767 13.4085L41.1433 17.2599L38.226 9.68582ZM47.3322 30.8004L43.0186 40.872L50.6206 37.9751L47.3322 30.8004ZM42.7353 41.7824L39.6998 50.4123L50.4688 50.1788L50.8061 38.7095L42.7353 41.7824ZM38.5666 50.7643L30.489 47.4308L22.5059 51.1027L30.8162 58.4974L38.5666 50.7643ZM31.4165 47.0043L39.0084 50.1348L41.8044 42.202L31.4165 47.0043ZM58.9376 29.6768L51.2412 21.7034L47.7369 29.8866L51.2445 37.5419L58.9376 29.6768ZM17.7639 41.4778L13.2816 30.5939L9.41316 38.2661L9.46037 38.283C12.2631 39.3322 15.0219 40.3982 17.7639 41.4778ZM9.81113 50.4259L21.167 50.5917L18.0944 42.3036L9.49073 39.0851L9.81113 50.4259ZM18.9174 42.642C19.9292 45.2377 20.941 47.8504 21.9292 50.5375L29.5447 47.0416L18.9174 42.642ZM50.6206 21.2262L42.4958 18.441L47.312 28.9492L50.6206 21.2262ZM8.46206 22.0385L1.37943 30.2454L8.79933 37.7686L12.8803 29.6768L12.8432 29.5888L8.46206 22.0385ZM17.5245 18.4613L9.09275 21.629L13.2749 28.7969L17.5245 18.4613ZM29.7268 13.8756L18.2934 18.1635C16.8634 21.9234 15.3862 25.6089 13.7167 29.67C15.403 33.8022 17.0253 37.7923 18.6003 41.7892C22.5734 43.3595 26.5093 44.9602 30.4688 46.5847L42.0472 41.2341L46.9174 29.8629L41.5649 18.1838L29.7268 13.8756ZM21.9697 8.6367L29.8381 12.911L37.7032 9.11388L29.5008 1.38417L21.9697 8.6367ZM29.0084 13.3138L21.5481 9.25264C20.5666 12.0481 19.6155 14.6675 18.6476 17.226L28.7319 13.4424L29.0084 13.3138ZM9.03542 8.89728L18.5261 2.50437L18.7285 2.41638L29.946 0H30.1889L41.2142 2.3487L41.3963 2.42315L51.4604 8.60624L51.6358 8.77207L51.9258 9.1951L51.9528 9.21203L57.7639 17.6727L57.855 17.886L60.3002 29.8257V30.0558L58.1417 41.0412L58.0574 41.2477L51.9865 50.6661L51.8314 50.8286L42.4688 57.3264L42.2665 57.4144L30.9545 60H30.7184L18.914 57.7833L18.7015 57.6987L8.92075 51.2685L8.75211 51.1027L2.54975 41.7215L2.4688 41.5252L0 30.4586V30.2217L2.20573 18.952L2.2968 18.7354L8.87353 9.05635L9.03542 8.89728ZM28.2327 1.55677L19.4637 3.45197L21.4503 8.12229L28.2327 1.55677ZM40.5295 3.38429L30.4115 1.2285L38.4115 8.76869L38.5228 8.71115L40.5295 3.38429ZM50.3373 9.26618L50.3002 9.24248L38.9511 9.476L42.0337 17.4629L42.0506 17.4968L50.7117 20.4682L50.3373 9.26618ZM56.4351 17.7844L51.1096 10.0344L51.4705 20.3666L56.4351 17.7844ZM56.7521 18.2921V18.2278L56.6712 18.1127L56.7521 18.2921ZM58.8364 28.4855L56.7858 18.4477L51.7032 21.0909L58.8364 28.4855ZM57.1501 40.0361L58.9882 30.6819L51.7369 38.0935L57.1501 40.0361ZM51.2277 49.6779L56.9612 40.7739L51.5346 38.8245L51.2277 49.6779ZM42.4587 55.8983L49.5852 50.9504L39.8651 51.1602L42.4587 55.8983ZM31.7403 58.6057L41.8314 56.301L39.0793 51.2652L31.7403 58.6057ZM19.6358 56.7308L29.855 58.6497L21.9224 51.59L19.6358 56.7308ZM10.8668 51.1806L18.9511 56.4837L21.2344 51.343L10.8668 51.1806ZM3.55481 41.0615L3.57504 41.1665L9.03542 49.4512L8.73862 38.9599L3.63912 41.2544L3.55481 41.0615ZM1.36931 31.2877L3.43339 40.5268L8.31366 38.3236L1.36931 31.2877ZM3.22428 19.7879L1.39629 29.1049L7.85498 21.6087L3.22428 19.7879ZM8.45194 11.7401L3.46712 19.0772L8.14165 20.9149L8.45194 11.7401ZM9.87184 9.72982L9.77066 9.80089L9.23778 10.5827L8.90051 20.9081L17.8752 17.5238L20.7892 9.20187L9.87184 9.72982ZM18.7622 3.74302L11.059 8.92436L20.7724 8.4641L18.7622 3.74302ZM35.8449 34.9089C36.0143 35.1994 36.1104 35.527 36.1248 35.8633C36.1248 36.4691 35.6223 36.7736 34.6105 36.7736C34.398 36.7736 34.2732 36.8752 34.2732 37.0376C34.2732 37.2001 34.3845 37.2644 34.6105 37.2644C35.0084 37.2644 35.5177 37.2475 36.1417 37.2204C36.7656 37.1933 37.2108 37.1764 37.5143 37.1764C38.1124 37.1764 38.9073 37.1888 39.8988 37.2136C40.9106 37.2474 41.4772 37.2644 41.6526 37.2644C41.828 37.2644 41.9899 37.1899 41.9899 37.0376C41.9899 36.8853 41.8415 36.7736 41.5548 36.7736C40.9932 36.7566 40.4494 36.5716 39.9933 36.2423C39.458 35.8706 39.0327 35.3608 38.7622 34.7668L29.8718 16.3563L20.9207 34.7668C20.635 35.3751 20.1852 35.8909 19.6223 36.2559C19.136 36.5839 18.5656 36.7637 17.9798 36.7736C17.774 36.7736 17.6729 36.8752 17.6729 37.0376C17.6729 37.2001 17.7842 37.2644 18.0101 37.2644C18.4452 37.2644 18.7993 37.2475 19.0658 37.2204C19.4706 37.1849 19.877 37.1702 20.2833 37.1764C20.8668 37.1764 21.7504 37.2576 22.6442 37.2576C22.8533 37.2576 22.9815 37.1899 22.9815 37.0376C22.9815 36.8853 22.8668 36.7736 22.6442 36.7736C21.6492 36.7736 21.1467 36.4826 21.1467 35.8633C21.1611 35.527 21.2572 35.1994 21.4266 34.9089L23.3828 30.8207H33.8988L35.8449 34.9089ZM29.4165 21.5139L33.656 30.3334H23.6391L28.7555 19.6999L29.4165 21.5139ZM41.2209 3.6618L39.3086 8.73823L49.1164 8.52163L41.2209 3.6618Z" fill="#242424"/>
<path d="M90.9376 35.1956C90.9052 35.0875 90.867 34.9813 90.8229 34.8775C90.7757 34.759 90.7183 34.6406 90.6576 34.5154L87.8178 28.5827H72.4047L69.5649 34.5187C69.5042 34.644 69.4468 34.7658 69.3996 34.8809C69.3555 34.9858 69.3173 35.0932 69.2849 35.2024C69.2625 35.2803 69.2445 35.3593 69.231 35.4393C69.2267 35.4967 69.2267 35.5544 69.231 35.6119V35.6559C69.2315 35.7342 69.2488 35.8115 69.2816 35.8826C69.3151 35.9429 69.364 35.9931 69.4232 36.0281C69.5666 36.1089 69.723 36.1639 69.8853 36.1906C70.1413 36.236 70.401 36.2576 70.661 36.2549H70.7622C70.9234 36.2537 71.0838 36.2777 71.2377 36.326C71.3866 36.3715 71.526 36.4437 71.6492 36.5392C71.793 36.649 71.9086 36.7917 71.9865 36.9554C72.0583 37.1208 72.0939 37.2997 72.091 37.48V37.5443C72.084 37.7094 72.0414 37.8711 71.9662 38.0181C71.8871 38.1744 71.7714 38.3091 71.629 38.4107C71.5138 38.4886 71.386 38.5459 71.2512 38.5799H71.0927V38.607H70.688C69.9595 38.607 69.1804 38.5664 68.4856 38.5291C67.9696 38.5021 67.5008 38.4784 67.0725 38.4784H66.4654H65.9898L65.5851 38.4987C65.4637 38.4987 65.3558 38.5156 65.2478 38.5291H65.2209C65.1096 38.5291 64.9983 38.5528 64.8836 38.5596L64.4721 38.5799C64.3237 38.5799 64.1652 38.5799 64 38.5799C63.8347 38.5799 63.6357 38.5799 63.5143 38.5799C63.3633 38.5811 63.2127 38.564 63.0657 38.5291C62.926 38.4961 62.7926 38.4401 62.6711 38.3633C62.514 38.262 62.3851 38.1223 62.2967 37.9572C62.2136 37.7901 62.1708 37.6058 62.172 37.4191C62.1699 37.2468 62.2044 37.0761 62.2731 36.9182C62.3416 36.7619 62.4441 36.6231 62.5733 36.5121L62.6711 36.4275C62.7564 36.3706 62.8481 36.324 62.9443 36.2887C63.0882 36.2395 63.2378 36.2088 63.3895 36.1973H63.4435C63.6184 36.1986 63.7932 36.1861 63.9662 36.1601C64.1422 36.1328 64.3158 36.0921 64.4856 36.0383C64.6721 35.979 64.8546 35.9078 65.032 35.8251C65.219 35.7347 65.4003 35.633 65.575 35.5205C65.7583 35.4256 65.9342 35.317 66.1011 35.1956C66.2658 35.0558 66.4202 34.9042 66.5632 34.7421C66.7112 34.571 66.8475 34.3901 66.9713 34.2006C67.0691 34.0517 67.1602 33.896 67.2478 33.7336C72.1742 23.601 77.1006 13.4685 82.0269 3.33594L96.4856 33.2801L96.6306 33.5813C96.7309 33.7942 96.8435 34.001 96.9679 34.2006C97.0849 34.3867 97.2133 34.5653 97.3524 34.7353C97.4858 34.8962 97.6301 35.0477 97.7841 35.1888C97.9362 35.3273 98.0986 35.454 98.2698 35.5679C98.4361 35.6817 98.6096 35.7846 98.7892 35.8758C98.9544 35.9609 99.1257 36.0333 99.3018 36.0924C99.4585 36.1488 99.6199 36.1907 99.7841 36.2177C99.9412 36.2449 100.1 36.2585 100.26 36.2583C100.584 36.2303 100.908 36.3087 101.184 36.4816C101.358 36.5831 101.502 36.7291 101.602 36.9047C101.691 37.0753 101.74 37.2645 101.743 37.4573C101.747 37.65 101.705 37.8409 101.622 38.0147C101.537 38.1768 101.413 38.3152 101.261 38.4174C101.143 38.4972 101.012 38.5556 100.873 38.59C100.729 38.6274 100.581 38.6456 100.432 38.6442H100.074L99.4199 38.6273L98.6172 38.6036L97.6661 38.5731L96.5666 38.5494L95.5851 38.5291H94.7723H93.5548H93.1028L92.5396 38.5528L91.865 38.5799H91.8482L91.1737 38.607L90.5261 38.6273C90.3102 38.6273 90.1079 38.6273 89.9224 38.6273C89.7369 38.6273 89.5312 38.6273 89.4401 38.6273C89.2922 38.6289 89.1447 38.6107 89.0016 38.5731C88.8621 38.5393 88.7296 38.4809 88.6104 38.4005C88.4588 38.2982 88.3348 38.1599 88.2495 37.9978C88.1675 37.8329 88.1259 37.6507 88.1281 37.4665C88.1266 37.2903 88.1635 37.1159 88.236 36.9554C88.3087 36.7961 88.4172 36.6559 88.5531 36.5459C88.6688 36.4543 88.7987 36.3822 88.9376 36.3327C89.0841 36.285 89.2358 36.2554 89.3895 36.2447H89.5514C89.8162 36.244 90.0803 36.2191 90.3406 36.1703C90.5078 36.1405 90.6686 36.0821 90.8161 35.9977C90.8731 35.9652 90.9207 35.9186 90.9544 35.8623C90.9837 35.7976 90.9976 35.7269 90.9949 35.6559V35.5103C90.998 35.4822 90.998 35.4538 90.9949 35.4257C90.9842 35.3456 90.9672 35.2664 90.9443 35.1888L90.9376 35.1956ZM86.6441 26.19C84.4991 21.7092 81.9224 17.0829 80.1821 12.4532L73.575 26.19H86.6441Z" fill="#242424"/>
<path d="M131.241 35.1408C131.208 35.044 131.17 34.9491 131.126 34.8565C131.086 34.7482 131.032 34.6365 130.975 34.5181L130.938 34.447L120.917 13.9112V13.8773L120.513 12.862L109.862 34.5215C109.798 34.6602 109.744 34.7854 109.703 34.8937C109.66 34.9984 109.624 35.1058 109.595 35.2152C109.572 35.2951 109.554 35.3765 109.541 35.4589C109.535 35.5197 109.535 35.5809 109.541 35.6417V35.6857C109.539 35.7643 109.556 35.8424 109.592 35.9124C109.625 35.9708 109.673 36.0197 109.73 36.0545C109.874 36.1355 110.03 36.1916 110.192 36.2204C110.448 36.2644 110.708 36.2848 110.968 36.2813H111.069C111.23 36.2802 111.39 36.3031 111.545 36.349C111.694 36.3962 111.834 36.4708 111.956 36.5689C112.101 36.6775 112.217 36.8206 112.293 36.9852C112.366 37.1479 112.403 37.3246 112.401 37.503V37.5572C112.396 37.721 112.354 37.8817 112.28 38.0276C112.201 38.1831 112.085 38.3168 111.943 38.4168C111.827 38.4982 111.698 38.5579 111.562 38.5928L111.447 38.6198V38.6469H110.992C110.256 38.6469 109.46 38.6029 108.755 38.5691L108.007 38.5318C107.791 38.5318 107.582 38.5318 107.366 38.5318H106.772C106.6 38.5318 106.435 38.5318 106.3 38.5318L105.895 38.5521L105.558 38.5792H105.531L105.194 38.6097L104.772 38.63H104.283H103.784C103.627 38.6316 103.47 38.6099 103.319 38.5657C103.173 38.5217 103.036 38.4518 102.914 38.3592C102.77 38.2523 102.654 38.1118 102.577 37.9497C102.501 37.7866 102.463 37.6085 102.465 37.4286C102.463 37.2585 102.498 37.09 102.567 36.9345C102.635 36.7804 102.739 36.6448 102.87 36.5385C102.979 36.447 103.103 36.377 103.238 36.332C103.374 36.2854 103.516 36.2569 103.659 36.2474H103.707C104.119 36.2374 104.529 36.1726 104.924 36.0545C105.292 35.9445 105.641 35.7791 105.96 35.5638C106.295 35.3337 106.595 35.0555 106.85 34.738C107.124 34.3989 107.359 34.0299 107.551 33.6382L122.324 3.66016L136.779 33.2693L136.924 33.5671C137.025 33.7764 137.138 33.9797 137.261 34.1763C137.381 34.361 137.512 34.5384 137.653 34.7076C137.788 34.8708 137.935 35.0246 138.091 35.1679C138.249 35.3101 138.416 35.4423 138.59 35.5638L138.644 35.601C138.803 35.7026 138.961 35.7906 139.116 35.8718C139.281 35.9575 139.451 36.031 139.626 36.0918C139.776 36.1435 139.931 36.1831 140.088 36.2102C140.233 36.237 140.381 36.2506 140.53 36.2508C140.698 36.2494 140.867 36.2664 141.032 36.3016C141.185 36.332 141.332 36.3869 141.467 36.464C141.654 36.5597 141.811 36.7063 141.919 36.8871C142.015 37.058 142.067 37.25 142.071 37.4459C142.075 37.6418 142.031 37.8358 141.943 38.0107C141.856 38.1756 141.728 38.3154 141.572 38.4168C141.451 38.496 141.318 38.5533 141.177 38.586C141.03 38.6209 140.88 38.638 140.729 38.6368H140.32H139.804L139.255 38.6198L138.648 38.5792H138.189C137.531 38.5589 136.911 38.542 136.361 38.5318C136.024 38.5318 135.707 38.5149 135.349 38.5115H133.885H133.44L132.877 38.5318L132.202 38.5623L131.528 38.5928L130.887 38.6131H130.277H129.777C129.627 38.6147 129.478 38.5965 129.332 38.5589C129.192 38.5215 129.058 38.4609 128.938 38.3795C128.787 38.2778 128.665 38.1392 128.583 37.9768C128.501 37.8134 128.459 37.6322 128.462 37.4489C128.459 37.2725 128.496 37.0978 128.57 36.9378C128.647 36.7753 128.763 36.6345 128.907 36.5283C129.022 36.4367 129.153 36.3658 129.292 36.3185C129.436 36.2695 129.585 36.2399 129.737 36.2305H129.899C130.159 36.2283 130.419 36.2034 130.675 36.1561C130.839 36.1258 130.997 36.0686 131.143 35.9869C131.198 35.9534 131.243 35.9069 131.275 35.8515C131.307 35.7864 131.322 35.7142 131.319 35.6417V35.4657V35.3709C131.306 35.2863 131.288 35.2027 131.265 35.1205" fill="#242424"/>
<path d="M148.577 5.19987C148.85 5.19987 149.113 5.17956 149.376 5.17956C149.74 5.17956 149.929 5.17956 150.118 5.17956H150.627L150.722 5.37923C151.963 8.03928 153.231 10.7027 154.502 13.3695C157.315 19.2751 160.148 25.2145 162.678 31.1709L175.882 5.31494H177.15H177.936L178.867 5.29463L179.922 5.26417L180.88 5.23709L181.673 5.21341H182.307H182.644C182.8 5.21326 182.956 5.2349 183.106 5.27771C183.252 5.32167 183.389 5.39159 183.511 5.48415C183.655 5.59033 183.771 5.73109 183.848 5.89365C183.924 6.05678 183.962 6.23492 183.959 6.41483C183.963 6.62156 183.907 6.82488 183.797 7.00031C183.685 7.17269 183.529 7.31177 183.346 7.40304C183.218 7.46495 183.083 7.51152 182.944 7.54179C182.792 7.57201 182.637 7.59012 182.482 7.59594H182.445C182.292 7.59587 182.14 7.60832 181.99 7.63317C181.85 7.65729 181.712 7.69352 181.578 7.74147C181.447 7.79205 181.319 7.85316 181.197 7.92422C181.078 7.99911 180.965 8.08402 180.86 8.17804C180.756 8.26426 180.663 8.36317 180.583 8.47247C180.503 8.57604 180.438 8.68986 180.388 8.8109C180.332 8.94478 180.291 9.08438 180.266 9.22717C180.238 9.39259 180.224 9.56021 180.226 9.72804V34.0949C180.225 34.2741 180.24 34.4529 180.27 34.6296C180.297 34.7775 180.341 34.9218 180.401 35.0594C180.452 35.1806 180.519 35.2944 180.6 35.3978C180.68 35.4947 180.77 35.5822 180.87 35.6584H180.89C181.014 35.7552 181.146 35.8402 181.285 35.9123C181.421 35.9833 181.563 36.0422 181.71 36.0882C181.867 36.1386 182.028 36.1748 182.192 36.1965C182.37 36.2133 182.549 36.2178 182.728 36.2101C182.891 36.2081 183.053 36.2333 183.207 36.2845C183.358 36.336 183.496 36.419 183.612 36.5282L183.723 36.6297V36.65C183.795 36.7359 183.852 36.8331 183.892 36.9377C183.954 37.095 183.985 37.2627 183.983 37.4318V37.4995C183.976 37.6631 183.935 37.8234 183.862 37.9699C183.781 38.1246 183.666 38.2579 183.524 38.3591C183.409 38.4379 183.281 38.4973 183.147 38.5351C183.007 38.571 182.863 38.5892 182.718 38.5892H182.634L180.995 38.5554L179.47 38.5283H178.158H175.862L174.752 38.5452L173.487 38.5723L172.138 38.6095H172.111H172.091C171.93 38.6104 171.771 38.5805 171.622 38.5215C171.473 38.4627 171.34 38.3713 171.231 38.2542C171.125 38.143 171.045 38.0103 170.995 37.865C170.943 37.7183 170.917 37.5637 170.917 37.4081C170.915 37.2521 170.943 37.0971 170.998 36.9512C171.052 36.8076 171.136 36.6772 171.244 36.5688C171.348 36.4672 171.469 36.3857 171.602 36.3285C171.736 36.2753 171.877 36.2422 172.02 36.2304H172.357C172.511 36.2304 172.664 36.218 172.816 36.1932C172.953 36.1714 173.087 36.1363 173.217 36.0882C173.34 36.0406 173.459 35.9817 173.571 35.9123C173.684 35.8395 173.792 35.7581 173.892 35.6686C173.983 35.5879 174.064 35.4957 174.131 35.3945C174.202 35.2885 174.261 35.175 174.307 35.056C174.356 34.9257 174.392 34.7908 174.415 34.6533C174.443 34.4935 174.456 34.3316 174.455 34.1693V13.3357L160.792 40.1934L148.148 13.4846V34.0577C148.147 34.237 148.163 34.416 148.195 34.5924C148.223 34.7402 148.267 34.8843 148.327 35.0222C148.378 35.1432 148.445 35.2569 148.526 35.3606C148.611 35.4606 148.707 35.5503 148.813 35.628C148.934 35.7201 149.063 35.8027 149.197 35.875C149.333 35.9461 149.476 36.005 149.622 36.051C149.778 36.1009 149.939 36.1371 150.101 36.1593C150.279 36.1842 150.458 36.1966 150.637 36.1965C150.799 36.1943 150.96 36.2195 151.113 36.271C151.263 36.3214 151.401 36.4033 151.518 36.5113C151.644 36.6235 151.742 36.7637 151.804 36.9208C151.867 37.079 151.898 37.2481 151.895 37.4183C151.897 37.6015 151.856 37.7825 151.774 37.9462C151.69 38.1081 151.567 38.2466 151.416 38.3489C151.295 38.4292 151.162 38.4887 151.022 38.5249C150.876 38.5636 150.727 38.583 150.577 38.5825H149.831H149.423L149.001 38.5791H148.647H148.347H147.969H147.663L147.221 38.5588H146.772H146.226L145.396 38.5791L144.465 38.6028L143.453 38.6332H143.426H143.406C143.248 38.6338 143.09 38.6075 142.941 38.5554C142.795 38.5034 142.661 38.4229 142.546 38.3185C142.426 38.2061 142.331 38.0686 142.27 37.9158C142.207 37.7621 142.176 37.5976 142.179 37.4318C142.16 37.2465 142.186 37.0595 142.256 36.8869C142.321 36.7334 142.422 36.5977 142.55 36.491C142.655 36.3986 142.778 36.3273 142.91 36.2811C143.043 36.2318 143.181 36.2021 143.322 36.1932H143.659C143.812 36.1934 143.964 36.1809 144.114 36.1559C144.383 36.114 144.639 36.0185 144.87 35.875C144.989 35.8031 145.102 35.7216 145.207 35.6314C145.298 35.5498 145.378 35.4577 145.447 35.3572C145.516 35.2513 145.574 35.1377 145.619 35.0188C145.67 34.8891 145.708 34.754 145.73 34.6161C145.757 34.4562 145.769 34.2942 145.767 34.1321V9.62313C145.769 9.46327 145.757 9.30354 145.73 9.14594C145.709 9.0082 145.672 8.87318 145.622 8.74321C145.576 8.62426 145.517 8.51076 145.447 8.40478C145.376 8.30158 145.295 8.20628 145.204 8.12051C145.1 8.02593 144.987 7.94203 144.867 7.87007C144.755 7.79935 144.636 7.74039 144.512 7.69409C144.384 7.64603 144.25 7.61088 144.114 7.58917C143.964 7.56418 143.812 7.55174 143.659 7.55195H143.322C143.164 7.55393 143.007 7.5252 142.86 7.46734C142.715 7.41037 142.584 7.32263 142.475 7.21013C142.368 7.10069 142.285 6.96905 142.233 6.82432C142.12 6.5208 142.12 6.18702 142.233 5.88349C142.292 5.73445 142.384 5.60015 142.5 5.48976C142.617 5.37937 142.755 5.2955 142.907 5.24386C143.057 5.19174 143.214 5.16542 143.372 5.16603H143.882L144.529 5.18295L145.221 5.20664L145.845 5.23709H145.888L146.226 5.2574H146.563C146.873 5.2574 147.113 5.2574 147.423 5.23033L147.926 5.21002C148.108 5.21002 148.32 5.1931 148.583 5.18633L148.577 5.19987Z" fill="#242424"/>
<path d="M213.599 35.1003C213.521 34.8442 213.419 34.5961 213.295 34.3592L210.361 28.2302H194.533L191.602 34.3592C191.477 34.5963 191.375 34.8444 191.295 35.1003C191.242 35.2687 191.215 35.4447 191.217 35.6215V35.6553C191.211 35.785 191.238 35.9141 191.297 36.0295C191.357 36.1449 191.445 36.2424 191.555 36.3119C191.994 36.53 192.483 36.627 192.971 36.5928H193.072C193.314 36.5809 193.553 36.6539 193.747 36.7992C193.848 36.8797 193.928 36.9831 193.98 37.1008C194.033 37.2185 194.057 37.3472 194.051 37.4761V37.4964C194.052 37.6213 194.021 37.7446 193.963 37.8546C193.904 37.9647 193.818 38.058 193.713 38.1259C193.53 38.2405 193.316 38.2971 193.099 38.2883H193.069C192.314 38.2883 191.531 38.2477 190.83 38.2139C190.293 38.1868 189.818 38.1597 189.389 38.1597C188.961 38.1597 188.577 38.1597 188.293 38.1766C188.01 38.1936 187.744 38.2037 187.541 38.224C187.325 38.2477 187.072 38.2646 186.786 38.2782C186.499 38.2917 186.165 38.2951 185.845 38.2951C185.609 38.3112 185.373 38.2545 185.17 38.1326C185.061 38.0629 184.973 37.9653 184.913 37.85C184.854 37.7347 184.826 37.6057 184.833 37.4761C184.829 37.3539 184.852 37.2323 184.901 37.1204C184.95 37.0085 185.024 36.9091 185.116 36.8297C185.295 36.6864 185.515 36.6056 185.744 36.5996H185.774C186.163 36.5999 186.55 36.5394 186.921 36.4202C187.334 36.2893 187.728 36.1026 188.091 35.8652C188.483 35.6177 188.837 35.3132 189.14 34.9616C189.464 34.5875 189.737 34.1722 189.953 33.7263L204.354 4.11719L218.651 33.7263C218.859 34.1646 219.12 34.5759 219.427 34.9514C219.711 35.2969 220.044 35.599 220.415 35.8482C220.758 36.0849 221.131 36.275 221.524 36.4134C221.868 36.5339 222.229 36.5968 222.594 36.5996C222.853 36.5879 223.111 36.6476 223.339 36.7722C223.463 36.8426 223.565 36.9458 223.635 37.0705C223.704 37.1952 223.738 37.3366 223.734 37.4795C223.738 37.6083 223.71 37.7361 223.65 37.8505C223.591 37.965 223.504 38.0622 223.396 38.1326C223.204 38.2509 222.981 38.3086 222.755 38.2985L221.744 38.2782L219.993 38.224C219.213 38.2037 218.517 38.189 217.905 38.18C217.356 38.18 216.819 38.1631 216.283 38.1631C216.017 38.1631 215.723 38.1631 215.406 38.18C215.089 38.1969 214.651 38.2071 214.165 38.2308L212.816 38.2815C212.374 38.2815 212.013 38.2985 211.74 38.2985C211.515 38.3086 211.292 38.2509 211.099 38.1326C210.992 38.0622 210.904 37.965 210.845 37.8505C210.786 37.7361 210.758 37.6083 210.762 37.4795C210.758 37.3546 210.783 37.2305 210.835 37.1171C210.887 37.0036 210.965 36.904 211.062 36.8263C211.247 36.6857 211.471 36.6075 211.703 36.6029H211.845C212.343 36.6278 212.84 36.5253 213.288 36.3051C213.396 36.24 213.484 36.1467 213.544 36.0353C213.603 35.9239 213.631 35.7985 213.626 35.6723V35.6317C213.625 35.4548 213.597 35.2792 213.545 35.1105M209.47 26.5448L203.197 13.4409L203.18 13.4037L202.506 11.5931L195.315 26.5448H209.47Z" fill="#242424"/>
<path d="M228.695 35.923C229.245 36.1017 229.809 36.2353 230.381 36.3224C230.97 36.4141 231.565 36.4594 232.162 36.4577C232.695 36.4599 233.227 36.4077 233.75 36.3021C234.224 36.2019 234.685 36.0462 235.123 35.8384C235.545 35.6309 235.94 35.3729 236.3 35.0702C236.678 34.7483 237.017 34.3838 237.312 33.9838C237.621 33.5595 237.889 33.1062 238.111 32.6301C238.34 32.1442 238.523 31.6377 238.657 31.1173C238.802 30.5624 238.902 29.9964 238.954 29.4252C239.01 28.7973 239.021 28.1662 238.988 27.5368C238.963 27.0231 238.909 26.5112 238.826 26.0037C238.744 25.5365 238.631 25.0753 238.489 24.6229C238.355 24.2036 238.189 23.7952 237.993 23.4012C237.799 23.0217 237.573 22.6594 237.319 22.3182V22.2979C237.091 21.9987 236.828 21.7282 236.536 21.4924C236.231 21.2496 235.898 21.044 235.544 20.8799C235.154 20.7035 234.746 20.5696 234.327 20.4805C233.872 20.386 233.411 20.3283 232.948 20.3079H232.509C232.355 20.3089 232.202 20.2953 232.05 20.2673C231.909 20.2428 231.773 20.1972 231.646 20.1319C231.468 20.0435 231.316 19.9092 231.207 19.7427C231.1 19.5759 231.041 19.3828 231.035 19.1843C231.02 18.9876 231.057 18.7903 231.142 18.6122C231.226 18.4341 231.356 18.2813 231.517 18.1691C231.644 18.0781 231.786 18.0094 231.936 17.966C232.093 17.9198 232.255 17.8925 232.418 17.8848H232.469C232.964 17.8872 233.457 17.8384 233.942 17.7393C234.379 17.6511 234.803 17.5078 235.204 17.3128C235.56 17.1416 235.89 16.9193 236.182 16.6529C236.431 16.4292 236.645 16.169 236.816 15.8813L236.86 15.8001C237.043 15.4744 237.201 15.135 237.332 14.7848C237.458 14.4602 237.56 14.1264 237.636 13.7864C237.708 13.4517 237.757 13.1125 237.784 12.7711C237.806 12.433 237.806 12.0939 237.784 11.7558C237.764 11.3345 237.716 10.9149 237.639 10.5003C237.564 10.1124 237.459 9.73108 237.325 9.35976C237.198 9.00867 237.041 8.66903 236.856 8.34448C236.688 8.05357 236.499 7.77533 236.29 7.51194L236.222 7.4341C235.999 7.16575 235.745 6.9239 235.467 6.71325C235.196 6.50971 234.901 6.3393 234.59 6.20561C234.265 6.06445 233.926 5.96002 233.578 5.89425C233.189 5.8247 232.794 5.79071 232.398 5.79272C231.853 5.79017 231.311 5.84806 230.779 5.96533C230.298 6.07442 229.834 6.24741 229.399 6.47973C229.001 6.69534 228.636 6.96906 228.317 7.29196C228.023 7.59237 227.774 7.93443 227.578 8.30725L227.541 8.37832C227.328 8.80621 227.144 9.24834 226.991 9.70157C226.843 10.1522 226.724 10.6124 226.637 11.079C226.548 11.5632 226.491 12.0527 226.465 12.5444C226.437 13.0629 226.437 13.5826 226.465 14.1011C226.465 14.1688 226.485 14.3516 226.499 14.5174V14.5885C226.499 14.734 226.523 14.8558 226.526 14.8761C226.532 15.0159 226.514 15.1557 226.472 15.289C226.427 15.428 226.353 15.5559 226.256 15.6647C226.162 15.7709 226.047 15.8572 225.919 15.9185C225.788 15.9813 225.646 16.0192 225.501 16.0302H225.42C225.241 16.0318 225.065 15.9888 224.907 15.905C224.75 15.8162 224.615 15.6923 224.512 15.5428C224.44 15.4383 224.382 15.3245 224.34 15.2044C224.296 15.0802 224.264 14.9522 224.243 14.822C224.192 14.5783 224.128 14.3042 224.057 14.003C223.986 13.7018 223.919 13.4311 223.845 13.1569C223.77 12.8828 223.69 12.5884 223.605 12.2939C223.521 11.9995 223.447 11.766 223.362 11.502L223.339 11.4242C223.224 11.0621 223.13 10.7473 223.049 10.5172C222.968 10.2871 222.877 10.0028 222.813 9.81664C222.749 9.6305 222.681 9.4376 222.614 9.26839C222.546 9.09917 222.506 8.9841 222.465 8.89611L222.442 8.83858V8.81151C222.381 8.604 222.393 8.38178 222.475 8.18203C222.561 7.96571 222.685 7.76635 222.84 7.59317C222.967 7.44636 223.102 7.30628 223.244 7.17351C223.403 7.02122 223.582 6.85201 223.797 6.67264C224.013 6.49327 224.259 6.29699 224.519 6.11423C224.779 5.93148 225.062 5.75211 225.379 5.56598C225.696 5.37984 226.02 5.20386 226.367 5.02788C226.715 4.85189 227.089 4.67253 227.48 4.49993C227.872 4.32733 228.283 4.1615 228.698 4.02951C229.101 3.89593 229.511 3.78297 229.926 3.69109C230.332 3.59736 230.743 3.5273 231.157 3.48126C231.561 3.43427 231.967 3.41054 232.374 3.41019C233.169 3.40878 233.962 3.45285 234.752 3.54218C235.489 3.62578 236.221 3.75806 236.941 3.93814C237.631 4.11317 238.307 4.33941 238.964 4.61499C239.595 4.87844 240.204 5.19191 240.786 5.55244C241.347 5.89839 241.871 6.3034 242.347 6.76063C242.793 7.18572 243.184 7.66556 243.511 8.1888C243.83 8.70563 244.08 9.26195 244.256 9.84371C244.434 10.4437 244.538 11.063 244.566 11.6881C244.627 12.6722 244.496 13.6587 244.179 14.5919C243.866 15.4795 243.364 16.2879 242.708 16.9609C242.185 17.4976 241.591 17.9609 240.944 18.3383C240.491 18.6027 240.021 18.8367 239.538 19.0388L239.649 19.0794C239.986 19.2114 240.297 19.3502 240.6 19.4991C241.134 19.7624 241.643 20.0739 242.121 20.4298C242.577 20.7691 242.997 21.1535 243.376 21.577L243.464 21.6752C243.788 22.0521 244.085 22.4526 244.351 22.8732C244.631 23.3221 244.872 23.7942 245.072 24.2845C245.273 24.778 245.429 25.2889 245.538 25.8108C245.653 26.3499 245.723 26.8978 245.747 27.4488C245.788 28.2077 245.739 28.9688 245.602 29.7162C245.465 30.4476 245.238 31.1592 244.927 31.8348C244.612 32.5248 244.219 33.1755 243.754 33.774C243.252 34.417 242.687 35.0077 242.067 35.5372C241.431 36.0876 240.742 36.5728 240.01 36.9857C239.264 37.4061 238.479 37.753 237.666 38.0213C236.818 38.301 235.948 38.5071 235.066 38.6372C234.117 38.7762 233.16 38.8452 232.202 38.8437C231.435 38.8437 230.67 38.7849 229.912 38.6677C229.186 38.5529 228.47 38.3763 227.774 38.1397C227.086 37.9062 226.421 37.6106 225.787 37.2564C225.237 36.9486 224.71 36.599 224.212 36.2107L223.946 35.9907C223.395 35.5419 222.884 35.046 222.418 34.5084C221.984 34.0112 221.604 33.4702 221.281 32.8941C220.971 32.3382 220.725 31.749 220.546 31.1376C220.373 30.5277 220.27 29.8997 220.239 29.2661C220.232 29.1109 220.242 28.9554 220.27 28.8025C220.297 28.6579 220.35 28.5193 220.425 28.393L220.604 28.0985L220.647 28.1256C220.703 28.0773 220.764 28.0354 220.829 28.0004C220.995 27.912 221.181 27.8677 221.369 27.8718C221.554 27.8703 221.738 27.9072 221.909 27.9801C222.076 28.0587 222.224 28.1744 222.34 28.3185C222.441 28.4434 222.517 28.5857 222.566 28.7382C222.617 28.8995 222.645 29.0668 222.651 29.2357C222.674 29.7127 222.753 30.1853 222.887 30.6435C223.02 31.0974 223.207 31.5337 223.443 31.9431C223.7 32.3808 224.003 32.7893 224.347 33.1614C224.682 33.5199 225.044 33.8514 225.43 34.153L225.602 34.2816C226.075 34.6378 226.576 34.9558 227.099 35.2326C227.608 35.5013 228.139 35.7277 228.684 35.9095" fill="#242424"/>
<path d="M246 51.4023H238.924V52.4346H246V51.4023Z" fill="#2B2A29"/>
<path d="M69.238 51.4023H62.1621V52.4312H69.238V51.4023Z" fill="#2B2A29"/>
<path d="M79.5417 54.4116C79.9035 54.7631 80.3873 54.9596 80.8908 54.9596C81.3943 54.9596 81.8781 54.7631 82.2399 54.4116C82.5798 54.0093 82.7663 53.499 82.7663 52.9716C82.7663 52.4441 82.5798 51.9339 82.2399 51.5315C81.8781 51.1801 81.3943 50.9835 80.8908 50.9835C80.3873 50.9835 79.9035 51.1801 79.5417 51.5315C79.2018 51.9339 79.0153 52.4441 79.0153 52.9716C79.0153 53.499 79.2018 54.0093 79.5417 54.4116ZM83.11 55.2204C82.5136 55.7934 81.7198 56.1132 80.8942 56.1132C80.0685 56.1132 79.2747 55.7934 78.6783 55.2204C78.1168 54.6077 77.8052 53.8057 77.8052 52.9733C77.8052 52.1409 78.1168 51.3388 78.6783 50.7261C79.2735 50.1508 80.0678 49.8293 80.8942 49.8293C81.7206 49.8293 82.5148 50.1508 83.11 50.7261C83.6715 51.3388 83.9831 52.1409 83.9831 52.9733C83.9831 53.8057 83.6715 54.6077 83.11 55.2204ZM85.3596 52.0967L85.4709 49.8733H89.9802V56.0733H88.7795V51.0239H86.5738L86.5131 52.1746C86.4965 53.0619 86.3776 53.9443 86.1589 54.8042C85.9026 55.6198 85.4675 56.1376 84.7121 56.1376C84.6204 56.1366 84.529 56.1275 84.4389 56.1105C84.3613 56.1105 84.2736 56.0766 84.1792 56.053L83.8925 55.9785L84.024 54.8515L84.3916 54.9429L84.5029 54.9666C84.5242 54.9699 84.5458 54.9699 84.567 54.9666C84.8402 54.9666 85.0122 54.6688 85.1269 54.2221C85.2677 53.522 85.3456 52.8107 85.3596 52.0967ZM92.7795 54.4116C93.1408 54.7639 93.6248 54.9609 94.1286 54.9609C94.6324 54.9609 95.1163 54.7639 95.4776 54.4116C95.8195 54.0102 96.0073 53.4995 96.0073 52.9716C96.0073 52.4436 95.8195 51.9329 95.4776 51.5315C95.1163 51.1793 94.6324 50.9822 94.1286 50.9822C93.6248 50.9822 93.1408 51.1793 92.7795 51.5315C92.4377 51.9329 92.2499 52.4436 92.2499 52.9716C92.2499 53.4995 92.4377 54.0102 92.7795 54.4116ZM96.3478 55.2204C95.7514 55.7934 94.9576 56.1132 94.1319 56.1132C93.3063 56.1132 92.5125 55.7934 91.9161 55.2204C91.3524 54.6088 91.0393 53.8063 91.0393 52.9733C91.0393 52.1402 91.3524 51.3377 91.9161 50.7261C92.5113 50.1508 93.3055 49.8293 94.1319 49.8293C94.9584 49.8293 95.7526 50.1508 96.3478 50.7261C96.9093 51.3388 97.2209 52.1409 97.2209 52.9733C97.2209 53.8057 96.9093 54.6077 96.3478 55.2204ZM97.2449 49.8733H102.412V51.0239H100.26V56.0733H99.0527V51.0239H96.9009V49.8733H97.2449ZM103.795 54.4116C104.156 54.7639 104.64 54.9609 105.144 54.9609C105.648 54.9609 106.132 54.7639 106.493 54.4116C106.835 54.0102 107.022 53.4995 107.022 52.9716C107.022 52.4436 106.835 51.9329 106.493 51.5315C106.132 51.1793 105.648 50.9822 105.144 50.9822C104.64 50.9822 104.156 51.1793 103.795 51.5315C103.453 51.9329 103.265 52.4436 103.265 52.9716C103.265 53.4995 103.453 54.0102 103.795 54.4116ZM107.363 55.2204C106.767 55.7934 105.973 56.1132 105.147 56.1132C104.321 56.1132 103.528 55.7934 102.931 55.2204C102.368 54.6088 102.055 53.8063 102.055 52.9733C102.055 52.1402 102.368 51.3377 102.931 50.7261C103.526 50.1508 104.321 49.8293 105.147 49.8293C105.974 49.8293 106.768 50.1508 107.363 50.7261C107.924 51.3388 108.236 52.1409 108.236 52.9733C108.236 53.8057 107.924 54.6077 107.363 55.2204ZM113.393 52.4859H115.167C115.731 52.5264 116.292 52.3711 116.756 52.046C117.079 51.72 117.26 51.2789 117.26 50.8192C117.26 50.3594 117.079 49.9183 116.756 49.5924C116.295 49.2645 115.734 49.1077 115.171 49.149H113.387L113.393 52.4859ZM112.52 47.9882H115.167C116.03 47.9437 116.88 48.2062 117.569 48.7294C117.856 48.9958 118.085 49.3191 118.242 49.6787C118.399 50.0383 118.48 50.4266 118.48 50.8192C118.48 51.2117 118.399 51.6 118.242 51.9596C118.085 52.3193 117.856 52.6425 117.569 52.909C116.879 53.4287 116.029 53.6908 115.167 53.6501H113.387V56.0733H112.176V47.9882H112.52ZM120.486 54.4183C120.847 54.7706 121.331 54.9677 121.835 54.9677C122.339 54.9677 122.823 54.7706 123.184 54.4183C123.526 54.0169 123.714 53.5063 123.714 52.9783C123.714 52.4504 123.526 51.9397 123.184 51.5383C122.823 51.186 122.339 50.989 121.835 50.989C121.331 50.989 120.847 51.186 120.486 51.5383C120.144 51.9397 119.956 52.4504 119.956 52.9783C119.956 53.5063 120.144 54.0169 120.486 54.4183ZM124.044 55.2204C123.448 55.7934 122.654 56.1132 121.828 56.1132C121.003 56.1132 120.209 55.7934 119.613 55.2204C119.051 54.6077 118.739 53.8057 118.739 52.9733C118.739 52.1409 119.051 51.3388 119.613 50.7261C120.208 50.1508 121.002 49.8293 121.828 49.8293C122.655 49.8293 123.449 50.1508 124.044 50.7261C124.608 51.3377 124.921 52.1402 124.921 52.9733C124.921 53.8063 124.608 54.6088 124.044 55.2204ZM129.889 55.8161C129.468 56.017 129.006 56.1189 128.54 56.1139C128.072 56.1097 127.61 56.0001 127.189 55.7932C126.768 55.5863 126.399 55.2874 126.109 54.9184C125.819 54.5495 125.614 54.1199 125.511 53.6612C125.408 53.2026 125.409 52.7266 125.514 52.2684C125.618 51.8101 125.824 51.3812 126.116 51.0132C126.407 50.6452 126.777 50.3475 127.199 50.1421C127.62 49.9366 128.082 49.8286 128.551 49.826C129.019 49.8234 129.482 49.9263 129.906 50.1271C130.315 50.3209 130.664 50.6213 130.918 50.9968L131.097 51.2642L130.172 51.9411L129.973 51.6669C129.822 51.4494 129.618 51.2746 129.38 51.1593C129.016 50.9955 128.611 50.9434 128.217 51.0096C127.824 51.0759 127.458 51.2574 127.167 51.5315C126.825 51.9335 126.637 52.4447 126.637 52.9733C126.637 53.5018 126.825 54.013 127.167 54.415C127.349 54.5955 127.565 54.7371 127.803 54.8314C128.04 54.9256 128.295 54.9705 128.55 54.9632C128.836 54.9675 129.12 54.9074 129.38 54.7872C129.617 54.6708 129.821 54.4962 129.973 54.2796L130.172 54.0055L131.1 54.6823L130.914 54.9531C130.656 55.328 130.302 55.6261 129.889 55.8161ZM135.673 55.8161C135.082 56.0876 134.424 56.1763 133.782 56.0709C133.141 55.9654 132.545 55.6705 132.071 55.2238C131.62 54.7849 131.311 54.22 131.185 53.6025C131.058 52.985 131.119 52.3436 131.361 51.7616C131.603 51.1797 132.013 50.6841 132.539 50.3395C133.065 49.9949 133.683 49.8171 134.311 49.8293C134.783 49.8224 135.25 49.9243 135.677 50.1271C136.086 50.3201 136.436 50.6206 136.688 50.9968L136.867 51.2642L135.943 51.9411L135.747 51.6669C135.595 51.4493 135.389 51.2745 135.15 51.1593C134.787 50.9962 134.383 50.9445 133.99 51.0107C133.597 51.077 133.232 51.2581 132.941 51.5315C132.597 51.9326 132.408 52.4441 132.408 52.9733C132.408 53.5024 132.597 54.0139 132.941 54.415C133.122 54.5957 133.338 54.7375 133.575 54.8318C133.812 54.9261 134.066 54.9708 134.321 54.9632C134.607 54.9678 134.891 54.9077 135.15 54.7872C135.389 54.6709 135.594 54.4963 135.747 54.2796L135.943 54.0055L136.871 54.6823L136.688 54.9531C136.431 55.3251 136.081 55.6227 135.673 55.8161ZM138.425 56.0733H137.626V49.8733H138.827V53.9919L142.257 49.8733H143.215V56.0733H142.014V51.9546L138.581 56.0733H138.425ZM145.619 56.0733H144.82V49.8733H146.021V53.9919L149.454 49.8733H150.409V56.0733H149.208V51.9546L145.778 56.0733H145.619ZM155.72 54.6722C156.066 54.9093 156.479 55.028 156.898 55.0106C157.264 55.0166 157.627 54.9439 157.963 54.7974C158.185 54.6965 158.388 54.5579 158.564 54.3879L156.631 52.3573C156.255 52.5732 155.914 52.8448 155.619 53.1628C155.434 53.3666 155.333 53.6345 155.339 53.9107C155.34 54.0586 155.374 54.2045 155.44 54.3367C155.506 54.4689 155.602 54.5837 155.72 54.6722ZM156.479 49.2573C156.404 49.3273 156.345 49.4129 156.306 49.5082C156.267 49.6034 156.249 49.7061 156.253 49.8089C156.25 49.9875 156.297 50.1634 156.388 50.3166C156.525 50.5411 156.685 50.7499 156.867 50.9393C157.193 50.7546 157.492 50.527 157.758 50.2624C157.833 50.1897 157.893 50.1025 157.934 50.006C157.975 49.9095 157.997 49.8056 157.997 49.7006C158.002 49.6108 157.987 49.5211 157.954 49.4375C157.921 49.354 157.87 49.2786 157.805 49.2167C157.623 49.0821 157.399 49.0172 157.174 49.034C156.925 49.0187 156.679 49.0931 156.479 49.2438V49.2573ZM160.038 54.2931L161.177 55.5013L160.409 56.3508L159.336 55.2204C159.062 55.4806 158.745 55.6902 158.398 55.8397C157.917 56.0442 157.4 56.1468 156.877 56.141C156.184 56.1621 155.503 55.9553 154.938 55.5521C154.688 55.3672 154.484 55.1255 154.345 54.8467C154.205 54.5679 154.133 54.2599 154.135 53.9479C154.132 53.4393 154.311 52.9465 154.641 52.5604C154.993 52.1585 155.406 51.8157 155.866 51.5451C155.652 51.3142 155.468 51.0573 155.319 50.7802C155.161 50.4814 155.081 50.1472 155.086 49.8089C155.08 49.5534 155.13 49.2996 155.233 49.0656C155.335 48.8317 155.488 48.6233 155.68 48.4552C156.103 48.1155 156.633 47.94 157.174 47.9611C157.68 47.9317 158.179 48.0854 158.581 48.3943C158.762 48.5536 158.905 48.7514 159.001 48.9732C159.097 49.195 159.142 49.4354 159.134 49.677C159.14 50.1221 158.977 50.5529 158.678 50.8818C158.375 51.2127 158.025 51.4977 157.64 51.7278L159.204 53.3895C159.235 53.3185 159.262 53.2474 159.289 53.1695C159.375 52.921 159.442 52.6665 159.491 52.4081L159.565 52.0358L160.641 52.3742L160.584 52.6721C160.517 53.008 160.424 53.3383 160.307 53.6603C160.231 53.8724 160.141 54.0792 160.038 54.2796V54.2931ZM169.029 54.8245C169.294 54.7428 169.545 54.6195 169.771 54.459V51.7346H170.962V54.9903L170.857 55.0884C170.489 55.4352 170.052 55.7004 169.575 55.8668C169.065 56.0483 168.528 56.1399 167.987 56.1376C166.874 56.1577 165.798 55.7398 164.989 54.9734C164.22 54.1918 163.788 53.1376 163.788 52.0392C163.788 50.9408 164.22 49.8866 164.989 49.105C165.799 48.339 166.877 47.9222 167.99 47.9442C168.544 47.939 169.094 48.0354 169.613 48.2285C170.095 48.4089 170.532 48.6944 170.891 49.0644L171.113 49.2945L170.321 50.1406L170.078 49.8969C169.812 49.6307 169.491 49.4262 169.137 49.2979C168.773 49.1722 168.389 49.1115 168.004 49.1186C167.203 49.1016 166.428 49.4006 165.845 49.9511C165.299 50.5087 164.993 51.2591 164.993 52.0409C164.993 52.8226 165.299 53.5731 165.845 54.1307C166.428 54.6801 167.201 54.9789 168 54.9632C168.348 54.9692 168.695 54.9224 169.029 54.8245ZM173.623 54.4116C173.984 54.7631 174.468 54.9596 174.972 54.9596C175.475 54.9596 175.959 54.7631 176.321 54.4116C176.661 54.0093 176.847 53.499 176.847 52.9716C176.847 52.4441 176.661 51.9339 176.321 51.5315C175.959 51.1801 175.475 50.9835 174.972 50.9835C174.468 50.9835 173.984 51.1801 173.623 51.5315C173.283 51.9339 173.096 52.4441 173.096 52.9716C173.096 53.499 173.283 54.0093 173.623 54.4116ZM177.191 55.2204C176.595 55.7934 175.801 56.1132 174.975 56.1132C174.149 56.1132 173.356 55.7934 172.759 55.2204C172.198 54.6077 171.886 53.8057 171.886 52.9733C171.886 52.1409 172.198 51.3388 172.759 50.7261C173.354 50.1508 174.149 49.8293 174.975 49.8293C175.802 49.8293 176.596 50.1508 177.191 50.7261C177.752 51.3388 178.064 52.1409 178.064 52.9733C178.064 53.8057 177.752 54.6077 177.191 55.2204ZM179.889 56.0733H179.019V47.5415H180.22V56.0733H179.889ZM182.925 54.4116C183.286 54.7631 183.77 54.9596 184.274 54.9596C184.777 54.9596 185.261 54.7631 185.623 54.4116C185.963 54.0093 186.149 53.499 186.149 52.9716C186.149 52.4441 185.963 51.9339 185.623 51.5315C185.261 51.1801 184.777 50.9835 184.274 50.9835C183.77 50.9835 183.286 51.1801 182.925 51.5315C182.585 51.9339 182.398 52.4441 182.398 52.9716C182.398 53.499 182.585 54.0093 182.925 54.4116ZM186.156 50.5264V47.5415H187.356V56.0733H186.166V55.4167C186.041 55.5294 185.905 55.6292 185.761 55.7145C185.301 55.9824 184.778 56.1215 184.247 56.1173C183.839 56.1241 183.434 56.0479 183.057 55.8932C182.679 55.7384 182.337 55.5084 182.051 55.217C181.496 54.6017 181.189 53.8014 181.189 52.9716C181.189 52.1417 181.496 51.3415 182.051 50.7261C182.339 50.436 182.682 50.2071 183.06 50.053C183.437 49.899 183.842 49.8228 184.25 49.8293C184.774 49.8247 185.29 49.9615 185.744 50.2252C185.887 50.3124 186.022 50.4133 186.145 50.5264H186.156ZM192.759 54.4116C193.121 54.7639 193.605 54.9609 194.108 54.9609C194.612 54.9609 195.096 54.7639 195.457 54.4116C195.799 54.0102 195.987 53.4995 195.987 52.9716C195.987 52.4436 195.799 51.9329 195.457 51.5315C195.096 51.1793 194.612 50.9822 194.108 50.9822C193.605 50.9822 193.121 51.1793 192.759 51.5315C192.417 51.9329 192.23 52.4436 192.23 52.9716C192.23 53.4995 192.417 54.0102 192.759 54.4116ZM196.328 55.2204C195.731 55.7934 194.937 56.1132 194.112 56.1132C193.286 56.1132 192.492 55.7934 191.896 55.2204C191.332 54.6088 191.019 53.8063 191.019 52.9733C191.019 52.1402 191.332 51.3377 191.896 50.7261C192.491 50.1508 193.285 49.8293 194.112 49.8293C194.938 49.8293 195.732 50.1508 196.328 50.7261C196.889 51.3388 197.201 52.1409 197.201 52.9733C197.201 53.8057 196.889 54.6077 196.328 55.2204ZM200.513 48.6888C200.398 48.6499 200.277 48.6305 200.156 48.6312C200.061 48.621 199.965 48.6311 199.874 48.6609C199.783 48.6906 199.7 48.7393 199.629 48.8038C199.499 48.9757 199.437 49.1909 199.457 49.4062V49.8733H201.221V51.0036H199.468V56.08H198.243V51.0036H197.231V49.8733H198.243V49.3622C198.227 49.1123 198.264 48.8617 198.352 48.6274C198.44 48.3931 198.577 48.1806 198.755 48.0041C198.932 47.8276 199.145 47.6914 199.379 47.6046C199.613 47.5178 199.863 47.4824 200.112 47.5009C200.357 47.5003 200.6 47.538 200.833 47.6125C201.052 47.6816 201.253 47.797 201.424 47.951L201.616 48.127L201.083 49.1422L200.746 48.8512C200.675 48.7837 200.592 48.7288 200.503 48.6888H200.513ZM205.714 49.149V52.4961H207.488C208.05 52.5368 208.609 52.3801 209.07 52.0527C209.231 51.8912 209.358 51.6994 209.445 51.4883C209.533 51.2773 209.577 51.051 209.577 50.8225C209.577 50.5941 209.533 50.3678 209.445 50.1568C209.358 49.9457 209.231 49.7539 209.07 49.5924C208.608 49.265 208.048 49.1083 207.484 49.149H205.714ZM209.262 53.3049L211.231 56.0733H209.795L208.024 53.6163L207.855 53.6332C207.727 53.6332 207.596 53.6332 207.464 53.6332H205.69V56.0563H204.479V47.9882H207.464C208.332 47.9421 209.187 48.2059 209.879 48.7327C210.179 48.99 210.417 49.3122 210.574 49.6751C210.732 50.038 210.806 50.4321 210.79 50.8276C210.806 51.4257 210.625 52.0124 210.274 52.4961C210.007 52.8484 209.655 53.1267 209.252 53.3049H209.262ZM216.226 53.1526V49.8733H217.427V56.0733H216.247V55.5284C216.15 55.6104 216.046 55.684 215.936 55.7484C215.5 55.9972 215.005 56.1245 214.503 56.1173C214.149 56.135 213.795 56.0805 213.462 55.9572C213.129 55.8339 212.825 55.6443 212.567 55.3998C212.326 55.1359 212.14 54.8262 212.02 54.4891C211.9 54.152 211.849 53.7943 211.869 53.4369V49.8733H213.07V53.3963C213.037 53.8238 213.171 54.2472 213.444 54.5774C213.591 54.7144 213.765 54.8194 213.955 54.8858C214.145 54.9522 214.346 54.9785 214.547 54.9632C214.774 54.9743 215.002 54.9376 215.214 54.8554C215.427 54.7733 215.62 54.6474 215.781 54.486C216.089 54.1126 216.244 53.6363 216.216 53.1526H216.226ZM222.5 55.6502C221.966 55.9813 221.345 56.1429 220.719 56.1139C220.261 56.1136 219.806 56.0429 219.37 55.904C218.971 55.7873 218.602 55.5865 218.287 55.3152L218.095 55.1324L218.672 54.1171L218.975 54.3777C219.21 54.5687 219.479 54.7134 219.768 54.8042C220.082 54.909 220.411 54.9627 220.742 54.9632C221.1 54.9889 221.457 54.9176 221.778 54.7568C221.86 54.7048 221.926 54.6319 221.97 54.5457C222.015 54.4595 222.036 54.363 222.031 54.2661C222.031 53.799 221.383 53.6772 220.682 53.5486C219.575 53.3388 218.378 53.1154 218.378 51.6703C218.375 51.3993 218.439 51.1318 218.563 50.8911C218.687 50.6503 218.868 50.4438 219.09 50.2895C219.598 49.9561 220.197 49.7916 220.803 49.8191C221.189 49.8202 221.572 49.8748 221.943 49.9815C222.284 50.0716 222.607 50.223 222.894 50.4283L223.13 50.6076L222.554 51.6229L222.25 51.403C222.052 51.2596 221.831 51.152 221.596 51.0848C221.335 51.0074 221.065 50.9686 220.793 50.9698C220.461 50.9484 220.13 51.0224 219.839 51.183C219.757 51.2346 219.69 51.3067 219.644 51.3921C219.599 51.4776 219.576 51.5734 219.579 51.6703C219.579 52.1746 220.253 52.3032 220.965 52.4385C222.064 52.6484 223.228 52.8683 223.228 54.2627C223.232 54.5378 223.167 54.8094 223.037 55.0521C222.908 55.2948 222.72 55.5006 222.489 55.6502H222.5ZM227.559 55.6502C227.025 55.9821 226.405 56.1437 225.778 56.1139C225.32 56.1134 224.865 56.0426 224.429 55.904C224.031 55.7873 223.663 55.5865 223.349 55.3152L223.154 55.1324L223.731 54.1171L224.038 54.3777C224.272 54.5695 224.541 54.7143 224.83 54.8042C225.143 54.909 225.471 54.9627 225.801 54.9632C226.159 54.9892 226.517 54.9179 226.837 54.7568C226.919 54.7048 226.985 54.6319 227.029 54.5457C227.074 54.4595 227.095 54.363 227.09 54.2661C227.09 53.799 226.442 53.6772 225.741 53.5486C224.631 53.3388 223.434 53.1154 223.434 51.6703C223.432 51.3995 223.496 51.1322 223.62 50.8917C223.744 50.6511 223.924 50.4444 224.145 50.2895C224.653 49.9566 225.253 49.792 225.859 49.8191C226.245 49.8204 226.63 49.8751 227.002 49.9815C227.332 50.0743 227.644 50.2243 227.923 50.4249L228.159 50.6043L227.582 51.6195L227.282 51.3996C227.083 51.2575 226.862 51.15 226.628 51.0814C226.366 51.0042 226.094 50.9654 225.822 50.9664C225.49 50.945 225.159 51.019 224.867 51.1796C224.786 51.2317 224.719 51.3039 224.674 51.3892C224.628 51.4746 224.606 51.5702 224.607 51.6669C224.607 52.1712 225.282 52.2998 225.997 52.4352C227.093 52.645 228.257 52.865 228.257 54.2593C228.263 54.5337 228.2 54.8052 228.073 55.0485C227.946 55.2917 227.76 55.4987 227.532 55.6502H227.559ZM229.957 56.0733H229.093V49.8733H230.284V56.0733H229.957ZM230.236 48.9663C230.166 49.0387 230.081 49.0961 229.988 49.1351C229.895 49.1741 229.795 49.1938 229.694 49.193C229.492 49.1935 229.298 49.1145 229.154 48.973C229.046 48.8658 228.973 48.7289 228.943 48.5798C228.913 48.4306 228.928 48.2759 228.986 48.1353C229.044 47.9946 229.142 47.8744 229.268 47.7898C229.394 47.7051 229.542 47.6599 229.694 47.6599C229.895 47.6598 230.089 47.7387 230.233 47.8799C230.305 47.9508 230.362 48.0353 230.401 48.1286C230.44 48.2218 230.46 48.322 230.46 48.4231C230.46 48.5242 230.44 48.6243 230.401 48.7176C230.362 48.8109 230.305 48.8954 230.233 48.9663H230.236ZM232.823 54.7568C233.096 54.9343 233.419 55.0185 233.744 54.9971C234.09 55.0082 234.431 54.9176 234.726 54.7365C234.981 54.5629 235.18 54.3166 235.296 54.0292V53.3963H233.754C233.421 53.3686 233.088 53.4442 232.8 53.6129C232.716 53.6777 232.649 53.7623 232.606 53.8591C232.562 53.9559 232.543 54.0619 232.55 54.1679C232.54 54.2803 232.557 54.3935 232.6 54.4979C232.643 54.6022 232.71 54.6945 232.796 54.7669L232.823 54.7568ZM232.722 50.0459C233.146 49.8956 233.592 49.8189 234.041 49.8191C234.369 49.799 234.698 49.844 235.009 49.9514C235.319 50.0588 235.606 50.2266 235.852 50.4452C236.075 50.6811 236.248 50.9606 236.358 51.2663C236.469 51.572 236.516 51.8973 236.496 52.2219V56.0631H235.319V55.6231C234.836 55.9589 234.257 56.1287 233.67 56.1071C233.079 56.1317 232.496 55.9552 232.017 55.6062C231.803 55.4393 231.63 55.2246 231.513 54.979C231.396 54.7334 231.338 54.4638 231.343 54.1916C231.332 53.9176 231.388 53.645 231.505 53.3974C231.623 53.1498 231.798 52.9345 232.017 52.7702C232.527 52.4336 233.132 52.271 233.741 52.3066H235.292V52.2016C235.306 52.033 235.286 51.8632 235.233 51.7026C235.179 51.5421 235.094 51.394 234.982 51.2676C234.705 51.0405 234.35 50.9301 233.994 50.9596C233.681 50.96 233.37 51.0149 233.076 51.1221C232.798 51.2218 232.541 51.3747 232.321 51.5722L232.038 51.8294L231.387 50.8885L231.609 50.6889C231.929 50.4115 232.297 50.1969 232.695 50.056L232.722 50.0459ZM76.3984 51.4402C76.2919 51.5775 76.1671 51.6993 76.0274 51.8023C76.2469 51.9237 76.4451 52.0803 76.6142 52.2659C76.9514 52.6456 77.1343 53.1383 77.1269 53.6467C77.1275 53.9968 77.0441 54.342 76.8839 54.653C76.7236 54.964 76.4912 55.2317 76.2061 55.4336C75.5524 55.8914 74.7704 56.1285 73.9734 56.1105C73.4345 56.1093 72.9 56.0119 72.395 55.8228C71.9044 55.6413 71.4533 55.3667 71.0662 55.014L70.8672 54.8312L71.4372 53.8498L71.7441 54.1408C72.0264 54.4031 72.3577 54.6067 72.7188 54.7399C73.0991 54.8844 73.5026 54.9578 73.9094 54.9565C74.437 54.9744 74.957 54.8265 75.3967 54.5334C75.5525 54.4278 75.6803 54.2857 75.769 54.1195C75.8577 53.9532 75.9048 53.7677 75.906 53.579C75.9125 53.4194 75.8789 53.2607 75.8081 53.1175C75.7374 52.9744 75.6319 52.8515 75.5013 52.76C75.0956 52.5139 74.6255 52.396 74.1522 52.4216H72.2972V51.2811H74.1286C74.5227 51.307 74.9145 51.2037 75.2449 50.9867C75.3562 50.8985 75.4448 50.7849 75.5035 50.6554C75.5621 50.5259 75.5891 50.3842 75.5822 50.2421C75.5795 50.0782 75.538 49.9172 75.4612 49.7725C75.3844 49.6277 75.2745 49.5034 75.1404 49.4096C74.7549 49.1517 74.2981 49.0226 73.8352 49.0407C73.4922 49.0399 73.151 49.0912 72.8233 49.193C72.4927 49.2928 72.178 49.4398 71.8891 49.6296L71.5518 49.8496L71.0932 48.7767L71.3427 48.6211C71.7199 48.3862 72.1273 48.204 72.5535 48.0796C72.9746 47.9579 73.4105 47.8952 73.8486 47.8934C74.596 47.8723 75.3303 48.093 75.9431 48.5229C76.2114 48.7149 76.4296 48.9689 76.5793 49.2635C76.729 49.558 76.8058 49.8844 76.8031 50.2151C76.8092 50.6575 76.6666 51.089 76.3984 51.4402Z" fill="#2B2A29"/>
</svg>
