<svg width="25" height="22" viewBox="0 0 25 22" fill="none" xmlns="http://www.w3.org/2000/svg">
<g opacity="0.9">
<path d="M12.5 2.34597C14.9 2.34597 16.8637 4.30961 16.8637 6.70961C16.8637 9.00052 14.5728 12.7096 12.5 15.3278C10.4273 12.6005 8.13641 9.00052 8.13641 6.70961C8.13641 4.30961 10.1 2.34597 12.5 2.34597ZM12.5 0.164154C8.90004 0.164154 5.95459 3.10961 5.95459 6.70961C5.95459 11.6187 12.5 18.7096 12.5 18.7096C12.5 18.7096 19.0455 11.5096 19.0455 6.70961C19.0455 3.10961 16.1 0.164154 12.5 0.164154ZM12.5 4.52779C11.3 4.52779 10.3182 5.50961 10.3182 6.70961C10.3182 7.90961 11.3 8.89143 12.5 8.89143C13.7 8.89143 14.6819 7.90961 14.6819 6.70961C14.6819 5.50961 13.7 4.52779 12.5 4.52779Z" fill="#257AE8"/>
<path d="M24.5 21.9823H0.5L3.77273 15.4369H8.13636L8.68182 16.5278H4.59091L3.22727 20.346H21.7727L20.4091 16.5278H16.3182L16.8636 15.4369H21.2273L24.5 21.9823Z" fill="#257AE8"/>
</g>
</svg>
