<svg width="390" height="62" viewBox="0 0 390 62" fill="none" xmlns="http://www.w3.org/2000/svg">
<path d="M174.189 18.9452L182.321 12.8375H155.105V49.415H182.321V43.3108H162.879V33.9714H179.493V27.862H162.879V18.9452H174.189ZM134.545 27.0854H125.12V18.9452H140.199L148.329 12.8392H117.344V49.4168H133.545C142.616 49.4168 147.856 45.2281 147.856 37.9229C147.856 30.9201 143.145 27.0888 134.545 27.0888V27.0854ZM133.249 43.3108H125.12V33.1914H133.249C138.197 33.1914 140.494 34.8682 140.494 38.282C140.494 41.6941 138.02 43.3108 133.249 43.3108ZM204.351 12.8375H189.564V49.415H197.34V39.0603H204.408C213.835 39.0603 219.725 34.0315 219.725 25.948C219.725 17.8663 213.835 12.8375 204.351 12.8375ZM204.173 32.9526H197.282V18.9452H204.173C209.179 18.9452 211.889 21.4605 211.889 25.9498C211.889 30.4408 209.179 32.9526 204.173 32.9526ZM104.029 41.5137C101.974 42.6514 99.6633 43.2484 97.3144 43.2489C90.3048 43.2489 85.2382 38.1617 85.2382 31.1572C85.2382 24.1527 90.3048 19.0638 97.3144 19.0638C99.8469 19.0036 102.321 19.842 104.383 21.3385L109.98 17.1481L109.626 16.789C106.386 13.8563 102.027 12.3582 97.0791 12.3582C91.7187 12.3582 86.8291 14.2137 83.2951 17.5673C81.5295 19.3055 80.1378 21.3864 79.2057 23.682C78.2736 25.9776 77.8206 28.4396 77.8746 30.9167C77.8162 36.0056 79.7593 40.9158 83.2951 44.5065C87.0061 48.0389 91.9541 50.0146 97.0189 49.8961C102.616 49.8961 107.506 47.9203 110.803 44.3296L105.797 40.5567L104.029 41.5137ZM313.211 12.8976V49.4752H320.987V34.5108H337.539V49.4752H345.315V12.8976H337.539V27.9238H320.987V12.8976H313.211ZM299.838 49.4752H308.028L292.83 12.8976H284.935L269.444 49.4752H277.276L280.4 42.1133H296.895L299.838 49.4769V49.4752ZM282.755 36.0056L288.765 21.3385L294.419 36.0056H282.755ZM362.753 34.6895H367.583L379.482 49.4168H389.497L373.591 30.4992L387.493 12.8375H378.599L367.052 28.5234H362.753V12.8375H354.977V49.415H362.753V34.6895ZM243.759 27.1472V19.0036H264.082V12.8976H235.983V49.4752H252.182C261.254 49.4752 266.497 45.2865 266.497 37.9813C266.497 30.9768 261.784 27.1455 253.184 27.1455L243.759 27.1472ZM243.759 43.3709V33.2515H251.888C256.836 33.2515 259.135 34.9283 259.135 38.3404C259.135 41.7542 256.718 43.4293 251.888 43.4293H243.759V43.3709ZM53.5468 12.597C54.9608 14.4525 56.1394 16.4884 57.1393 18.6446L29.9252 39.0586L18.4967 31.7551V23.0153L29.8668 30.2586L53.5468 12.597ZM6.89286 31.1572C6.89286 30.738 6.89286 30.3789 6.95128 29.9597L0.0584141 29.5989C0.0584141 30.08 0 30.6177 0 31.0971C0 39.4778 3.35709 47.0819 8.77758 52.59L13.6672 47.6197C11.5096 45.4569 9.80053 42.8892 8.638 40.0641C7.47547 37.239 6.88241 34.2121 6.89286 31.1572ZM29.8668 7.80874C30.2791 7.80874 30.633 7.80874 31.0454 7.86887L31.3993 0.864331C30.9268 0.864331 30.3977 0.804199 29.9269 0.804199C21.6802 0.804199 14.1981 4.21627 8.77758 9.72438L13.6672 14.693C15.7686 12.5185 18.2857 10.7885 21.0688 9.60586C23.852 8.42324 26.8428 7.81209 29.8668 7.80874ZM29.8668 54.5057C29.4545 54.5057 29.1005 54.5057 28.6882 54.4455L28.3343 61.4501C28.8067 61.4501 29.3359 61.5102 29.8084 61.5102C38.0551 61.5102 45.5355 58.0981 50.956 52.59L46.0664 47.6214C41.943 51.932 36.2288 54.5057 29.8651 54.5057H29.8668Z" fill="white"/>
<path d="M42.8244 11.8789L48.6572 7.50987C43.5322 3.3178 36.9933 0.744141 29.8651 0.744141V7.74868C34.6963 7.80881 39.1735 9.30524 42.8244 11.8789ZM59.7937 31.1573C59.7937 29.3018 59.6167 27.5064 59.3212 25.711L52.9008 30.5594V31.1573C52.9008 38.0415 49.9561 44.2077 45.3018 48.4581L49.9561 53.6673C55.9641 48.1592 59.7937 40.0774 59.7937 31.1573ZM29.8651 54.5057C23.0907 54.5057 17.0226 51.5111 12.8408 46.7813L7.71581 51.5111C13.1947 57.679 21.0875 61.5103 29.8651 61.5103V54.5057ZM14.4918 13.8564L9.8359 8.64722C3.77286 14.2137 0 22.2371 0 31.1573H6.89286C6.89286 24.3331 9.83762 18.1069 14.4918 13.8564Z" fill="white"/>
</svg>
