<svg width="246" height="60" viewBox="0 0 246 60" fill="none" xmlns="http://www.w3.org/2000/svg">
<path d="M38.226 9.68582L30.5767 13.4085L41.1433 17.2599L38.226 9.68582ZM47.3322 30.8004L43.0186 40.872L50.6206 37.9751L47.3322 30.8004ZM42.7353 41.7824L39.6998 50.4123L50.4688 50.1788L50.8061 38.7095L42.7353 41.7824ZM38.5666 50.7643L30.489 47.4308L22.5059 51.1027L30.8162 58.4974L38.5666 50.7643ZM31.4165 47.0043L39.0084 50.1348L41.8044 42.202L31.4165 47.0043ZM58.9376 29.6768L51.2412 21.7034L47.7369 29.8866L51.2445 37.5419L58.9376 29.6768ZM17.7639 41.4778L13.2816 30.5939L9.41316 38.2661L9.46037 38.283C12.2631 39.3322 15.0219 40.3982 17.7639 41.4778ZM9.81113 50.4259L21.167 50.5917L18.0944 42.3036L9.49073 39.0851L9.81113 50.4259ZM18.9174 42.642C19.9292 45.2377 20.941 47.8504 21.9292 50.5375L29.5447 47.0416L18.9174 42.642ZM50.6206 21.2262L42.4958 18.441L47.312 28.9492L50.6206 21.2262ZM8.46206 22.0385L1.37943 30.2454L8.79933 37.7686L12.8803 29.6768L12.8432 29.5888L8.46206 22.0385ZM17.5245 18.4613L9.09275 21.629L13.2749 28.7969L17.5245 18.4613ZM29.7268 13.8756L18.2934 18.1635C16.8634 21.9234 15.3862 25.6089 13.7167 29.67C15.403 33.8022 17.0253 37.7923 18.6003 41.7892C22.5734 43.3595 26.5093 44.9602 30.4688 46.5847L42.0472 41.2341L46.9174 29.8629L41.5649 18.1838L29.7268 13.8756ZM21.9697 8.6367L29.8381 12.911L37.7032 9.11388L29.5008 1.38417L21.9697 8.6367ZM29.0084 13.3138L21.5481 9.25264C20.5666 12.0481 19.6155 14.6675 18.6476 17.226L28.7319 13.4424L29.0084 13.3138ZM9.03542 8.89728L18.5261 2.50437L18.7285 2.41638L29.946 0H30.1889L41.2142 2.3487L41.3963 2.42315L51.4604 8.60624L51.6358 8.77207L51.9258 9.1951L51.9528 9.21203L57.7639 17.6727L57.855 17.886L60.3002 29.8257V30.0558L58.1417 41.0412L58.0574 41.2477L51.9865 50.6661L51.8314 50.8286L42.4688 57.3264L42.2665 57.4144L30.9545 60H30.7184L18.914 57.7833L18.7015 57.6987L8.92075 51.2685L8.75211 51.1027L2.54975 41.7215L2.4688 41.5252L0 30.4586V30.2217L2.20573 18.952L2.2968 18.7354L8.87353 9.05635L9.03542 8.89728ZM28.2327 1.55677L19.4637 3.45197L21.4503 8.12229L28.2327 1.55677ZM40.5295 3.38429L30.4115 1.2285L38.4115 8.76869L38.5228 8.71115L40.5295 3.38429ZM50.3373 9.26618L50.3002 9.24248L38.9511 9.476L42.0337 17.4629L42.0506 17.4968L50.7117 20.4682L50.3373 9.26618ZM56.4351 17.7844L51.1096 10.0344L51.4705 20.3666L56.4351 17.7844ZM56.7521 18.2921V18.2278L56.6712 18.1127L56.7521 18.2921ZM58.8364 28.4855L56.7858 18.4477L51.7032 21.0909L58.8364 28.4855ZM57.1501 40.0361L58.9882 30.6819L51.7369 38.0935L57.1501 40.0361ZM51.2277 49.6779L56.9612 40.7739L51.5346 38.8245L51.2277 49.6779ZM42.4587 55.8983L49.5852 50.9504L39.8651 51.1602L42.4587 55.8983ZM31.7403 58.6057L41.8314 56.301L39.0793 51.2652L31.7403 58.6057ZM19.6358 56.7308L29.855 58.6497L21.9224 51.59L19.6358 56.7308ZM10.8668 51.1806L18.9511 56.4837L21.2344 51.343L10.8668 51.1806ZM3.55481 41.0615L3.57504 41.1665L9.03542 49.4512L8.73862 38.9599L3.63912 41.2544L3.55481 41.0615ZM1.36931 31.2877L3.43339 40.5268L8.31366 38.3236L1.36931 31.2877ZM3.22428 19.7879L1.39629 29.1049L7.85498 21.6087L3.22428 19.7879ZM8.45194 11.7401L3.46712 19.0772L8.14165 20.9149L8.45194 11.7401ZM9.87184 9.72982L9.77066 9.80089L9.23778 10.5827L8.90051 20.9081L17.8752 17.5238L20.7892 9.20187L9.87184 9.72982ZM18.7622 3.74302L11.059 8.92436L20.7724 8.4641L18.7622 3.74302ZM35.8449 34.9089C36.0143 35.1994 36.1104 35.527 36.1248 35.8633C36.1248 36.4691 35.6223 36.7736 34.6105 36.7736C34.398 36.7736 34.2732 36.8752 34.2732 37.0376C34.2732 37.2001 34.3845 37.2644 34.6105 37.2644C35.0084 37.2644 35.5177 37.2475 36.1417 37.2204C36.7656 37.1933 37.2108 37.1764 37.5143 37.1764C38.1124 37.1764 38.9073 37.1888 39.8988 37.2136C40.9106 37.2474 41.4772 37.2644 41.6526 37.2644C41.828 37.2644 41.9899 37.1899 41.9899 37.0376C41.9899 36.8853 41.8415 36.7736 41.5548 36.7736C40.9932 36.7566 40.4494 36.5716 39.9933 36.2423C39.458 35.8706 39.0327 35.3608 38.7622 34.7668L29.8718 16.3563L20.9207 34.7668C20.635 35.3751 20.1852 35.8909 19.6223 36.2559C19.136 36.5839 18.5656 36.7637 17.9798 36.7736C17.774 36.7736 17.6729 36.8752 17.6729 37.0376C17.6729 37.2001 17.7842 37.2644 18.0101 37.2644C18.4452 37.2644 18.7993 37.2475 19.0658 37.2204C19.4706 37.1849 19.877 37.1702 20.2833 37.1764C20.8668 37.1764 21.7504 37.2576 22.6442 37.2576C22.8533 37.2576 22.9815 37.1899 22.9815 37.0376C22.9815 36.8853 22.8668 36.7736 22.6442 36.7736C21.6492 36.7736 21.1467 36.4826 21.1467 35.8633C21.1611 35.527 21.2572 35.1994 21.4266 34.9089L23.3828 30.8207H33.8988L35.8449 34.9089ZM29.4165 21.5139L33.656 30.3334H23.6391L28.7555 19.6999L29.4165 21.5139ZM41.2209 3.6618L39.3086 8.73823L49.1164 8.52163L41.2209 3.6618Z" fill="#242424"/>
<path d="M90.9376 35.1965C90.9052 35.0885 90.867 34.9823 90.8229 34.8784C90.7757 34.76 90.7183 34.6415 90.6576 34.5163L87.8178 28.5837H72.4047L69.5649 34.5197C69.5042 34.6449 69.4468 34.7667 69.3996 34.8818C69.3555 34.9868 69.3173 35.0941 69.2849 35.2033C69.2625 35.2812 69.2445 35.3603 69.231 35.4402C69.2267 35.4977 69.2267 35.5554 69.231 35.6128V35.6568C69.2315 35.7351 69.2488 35.8125 69.2816 35.8836C69.3151 35.9438 69.364 35.994 69.4232 36.0291C69.5666 36.1099 69.723 36.1648 69.8853 36.1915C70.1413 36.237 70.401 36.2585 70.661 36.2558H70.7622C70.9234 36.2547 71.0838 36.2787 71.2377 36.3269C71.3866 36.3724 71.526 36.4447 71.6492 36.5401C71.793 36.65 71.9086 36.7927 71.9865 36.9564C72.0583 37.1217 72.0939 37.3006 72.091 37.4809V37.5452C72.084 37.7104 72.0414 37.872 71.9662 38.019C71.8871 38.1754 71.7714 38.3101 71.629 38.4116C71.5138 38.4896 71.386 38.5468 71.2512 38.5808H71.0927V38.6079H70.688C69.9595 38.6079 69.1804 38.5673 68.4856 38.5301C67.9696 38.503 67.5008 38.4793 67.0725 38.4793H66.4654H65.9898L65.5851 38.4996C65.4637 38.4996 65.3558 38.5165 65.2478 38.5301H65.2209C65.1096 38.5301 64.9983 38.5538 64.8836 38.5605L64.4721 38.5808C64.3237 38.5808 64.1652 38.5808 64 38.5808C63.8347 38.5808 63.6357 38.5808 63.5143 38.5808C63.3633 38.582 63.2127 38.565 63.0657 38.5301C62.926 38.4971 62.7926 38.441 62.6711 38.3642C62.514 38.263 62.3851 38.1232 62.2967 37.9581C62.2136 37.7911 62.1708 37.6067 62.172 37.42C62.1699 37.2478 62.2044 37.077 62.2731 36.9191C62.3416 36.7629 62.4441 36.6241 62.5733 36.513L62.6711 36.4284C62.7564 36.3715 62.8481 36.3249 62.9443 36.2897C63.0882 36.2404 63.2378 36.2097 63.3895 36.1983H63.4435C63.6184 36.1995 63.7932 36.1871 63.9662 36.1611C64.1422 36.1337 64.3158 36.093 64.4856 36.0392C64.6721 35.98 64.8546 35.9088 65.032 35.826C65.219 35.7356 65.4003 35.6339 65.575 35.5214C65.7583 35.4266 65.9342 35.318 66.1011 35.1965C66.2658 35.0567 66.4202 34.9052 66.5632 34.7431C66.7112 34.572 66.8475 34.3911 66.9713 34.2016C67.0691 34.0527 67.1602 33.897 67.2478 33.7345C72.1742 23.602 77.1006 13.4694 82.0269 3.33688L96.4856 33.281L96.6306 33.5822C96.7309 33.7952 96.8435 34.0019 96.9679 34.2016C97.0849 34.3876 97.2133 34.5662 97.3524 34.7363C97.4858 34.8972 97.6301 35.0487 97.7841 35.1898C97.9362 35.3283 98.0986 35.455 98.2698 35.5688C98.4361 35.6827 98.6096 35.7855 98.7892 35.8768C98.9544 35.9618 99.1257 36.0342 99.3018 36.0934C99.4585 36.1497 99.6199 36.1916 99.7841 36.2186C99.9412 36.2458 100.1 36.2594 100.26 36.2592C100.584 36.2312 100.908 36.3096 101.184 36.4826C101.358 36.584 101.502 36.73 101.602 36.9056C101.691 37.0762 101.74 37.2655 101.743 37.4582C101.747 37.651 101.705 37.8419 101.622 38.0157C101.537 38.1777 101.413 38.3161 101.261 38.4184C101.143 38.4981 101.012 38.5565 100.873 38.591C100.729 38.6283 100.581 38.6465 100.432 38.6451H100.074L99.4199 38.6282L98.6172 38.6045L97.6661 38.5741L96.5666 38.5504L95.5851 38.5301H94.7723H93.5548H93.1028L92.5396 38.5538L91.865 38.5808H91.8482L91.1737 38.6079L90.5261 38.6282C90.3102 38.6282 90.1079 38.6282 89.9224 38.6282C89.7369 38.6282 89.5312 38.6282 89.4401 38.6282C89.2922 38.6298 89.1447 38.6116 89.0016 38.5741C88.8621 38.5403 88.7296 38.4818 88.6104 38.4015C88.4588 38.2992 88.3348 38.1608 88.2495 37.9987C88.1675 37.8339 88.1259 37.6517 88.1281 37.4674C88.1266 37.2912 88.1635 37.1168 88.236 36.9564C88.3087 36.7971 88.4172 36.6569 88.5531 36.5469C88.6688 36.4552 88.7987 36.3832 88.9376 36.3337C89.0841 36.2859 89.2358 36.2564 89.3895 36.2457H89.5514C89.8162 36.245 90.0803 36.22 90.3406 36.1712C90.5078 36.1414 90.6686 36.083 90.8161 35.9986C90.8731 35.9662 90.9207 35.9195 90.9544 35.8633C90.9837 35.7985 90.9976 35.7278 90.9949 35.6568V35.5113C90.998 35.4832 90.998 35.4548 90.9949 35.4267C90.9842 35.3465 90.9672 35.2673 90.9443 35.1898L90.9376 35.1965ZM86.6441 26.191C84.4991 21.7102 81.9224 17.0839 80.1821 12.4541L73.575 26.191H86.6441Z" fill="#242424"/>
<path d="M131.241 35.1424C131.208 35.0457 131.17 34.9508 131.126 34.8581C131.086 34.7498 131.032 34.6382 130.975 34.5197L130.938 34.4486L120.917 13.9128V13.8789L120.513 12.8637L109.862 34.5231C109.798 34.6618 109.744 34.7871 109.703 34.8954C109.66 35 109.624 35.1074 109.595 35.2169C109.572 35.2967 109.554 35.3781 109.541 35.4605C109.535 35.5213 109.535 35.5825 109.541 35.6433V35.6873C109.539 35.766 109.556 35.844 109.592 35.914C109.625 35.9724 109.673 36.0214 109.73 36.0562C109.874 36.1371 110.03 36.1932 110.192 36.222C110.448 36.266 110.708 36.2864 110.968 36.2829H111.069C111.23 36.2819 111.39 36.3047 111.545 36.3506C111.694 36.3979 111.834 36.4724 111.956 36.5706C112.101 36.6792 112.217 36.8222 112.293 36.9869C112.366 37.1496 112.403 37.3262 112.401 37.5046V37.5588C112.396 37.7227 112.354 37.8833 112.28 38.0292C112.201 38.1848 112.085 38.3184 111.943 38.4184C111.827 38.4999 111.698 38.5595 111.562 38.5944L111.447 38.6215V38.6485H110.992C110.256 38.6485 109.46 38.6045 108.755 38.5707L108.007 38.5335C107.791 38.5335 107.582 38.5335 107.366 38.5335H106.772C106.6 38.5335 106.435 38.5335 106.3 38.5335L105.895 38.5538L105.558 38.5808H105.531L105.194 38.6113L104.772 38.6316H104.283H103.784C103.627 38.6332 103.47 38.6116 103.319 38.5673C103.173 38.5233 103.036 38.4534 102.914 38.3609C102.77 38.254 102.654 38.1134 102.577 37.9514C102.501 37.7882 102.463 37.6101 102.465 37.4302C102.463 37.2601 102.498 37.0916 102.567 36.9361C102.635 36.782 102.739 36.6464 102.87 36.5401C102.979 36.4487 103.103 36.3786 103.238 36.3337C103.374 36.287 103.516 36.2586 103.659 36.2491H103.707C104.119 36.2391 104.529 36.1742 104.924 36.0562C105.292 35.9462 105.641 35.7807 105.96 35.5654C106.295 35.3353 106.595 35.0571 106.85 34.7397C107.124 34.4005 107.359 34.0316 107.551 33.6398L122.324 3.66179L136.779 33.2709L136.924 33.5687C137.025 33.778 137.138 33.9814 137.261 34.1779C137.381 34.3627 137.512 34.5401 137.653 34.7092C137.788 34.8725 137.935 35.0262 138.091 35.1695C138.249 35.3117 138.416 35.444 138.59 35.5654L138.644 35.6027C138.803 35.7042 138.961 35.7922 139.116 35.8734C139.281 35.9591 139.451 36.0326 139.626 36.0934C139.776 36.1452 139.931 36.1848 140.088 36.2118C140.233 36.2386 140.381 36.2522 140.53 36.2525C140.698 36.251 140.867 36.2681 141.032 36.3032C141.185 36.3336 141.332 36.3885 141.467 36.4657C141.654 36.5613 141.811 36.7079 141.919 36.8887C142.015 37.0597 142.067 37.2516 142.071 37.4475C142.075 37.6435 142.031 37.8374 141.943 38.0123C141.856 38.1772 141.728 38.317 141.572 38.4184C141.451 38.4977 141.318 38.555 141.177 38.5876C141.03 38.6225 140.88 38.6396 140.729 38.6384H140.32H139.804L139.255 38.6215L138.648 38.5808H138.189C137.531 38.5605 136.911 38.5436 136.361 38.5335C136.024 38.5335 135.707 38.5165 135.349 38.5132H133.885H133.44L132.877 38.5335L132.202 38.5639L131.528 38.5944L130.887 38.6147H130.277H129.777C129.627 38.6163 129.478 38.5981 129.332 38.5605C129.192 38.5231 129.058 38.4625 128.938 38.3812C128.787 38.2795 128.665 38.1408 128.583 37.9784C128.501 37.815 128.459 37.6338 128.462 37.4505C128.459 37.2742 128.496 37.0994 128.57 36.9395C128.647 36.7769 128.763 36.6362 128.907 36.53C129.022 36.4384 129.153 36.3674 129.292 36.3201C129.436 36.2711 129.585 36.2415 129.737 36.2322H129.899C130.159 36.23 130.419 36.2051 130.675 36.1577C130.839 36.1274 130.997 36.0702 131.143 35.9885C131.198 35.955 131.243 35.9085 131.275 35.8531C131.307 35.788 131.322 35.7158 131.319 35.6433V35.4673V35.3725C131.306 35.288 131.288 35.2043 131.265 35.1221" fill="#242424"/>
<path d="M148.577 5.20162C148.85 5.20162 149.113 5.18132 149.376 5.18132C149.74 5.18132 149.929 5.18132 150.118 5.18132H150.627L150.722 5.38099C151.963 8.04104 153.231 10.7045 154.502 13.3713C157.315 19.2769 160.148 25.2163 162.678 31.1726L175.882 5.31669H177.15H177.936L178.867 5.29638L179.922 5.26592L180.88 5.23885L181.673 5.21516H182.307H182.644C182.8 5.21501 182.956 5.23665 183.106 5.27946C183.252 5.32342 183.389 5.39335 183.511 5.4859C183.655 5.59208 183.771 5.73284 183.848 5.8954C183.924 6.05854 183.962 6.23667 183.959 6.41658C183.963 6.62332 183.907 6.82663 183.797 7.00206C183.685 7.17445 183.529 7.31352 183.346 7.40479C183.218 7.4667 183.083 7.51327 182.944 7.54355C182.792 7.57377 182.637 7.59187 182.482 7.59769H182.445C182.292 7.59762 182.14 7.61007 181.99 7.63492C181.85 7.65904 181.712 7.69528 181.578 7.74322C181.447 7.7938 181.319 7.85491 181.197 7.92597C181.078 8.00087 180.965 8.08578 180.86 8.17979C180.756 8.26601 180.663 8.36492 180.583 8.47422C180.503 8.5778 180.438 8.69161 180.388 8.81265C180.332 8.94654 180.291 9.08613 180.266 9.22892C180.238 9.39435 180.224 9.56196 180.226 9.7298V34.0966C180.225 34.2758 180.24 34.4547 180.27 34.6314C180.297 34.7793 180.341 34.9235 180.401 35.0612C180.452 35.1823 180.519 35.2961 180.6 35.3996C180.68 35.4965 180.77 35.5839 180.87 35.6602H180.89C181.014 35.7569 181.146 35.8419 181.285 35.914C181.421 35.9851 181.563 36.044 181.71 36.09C181.867 36.1404 182.028 36.1766 182.192 36.1983C182.37 36.2151 182.549 36.2196 182.728 36.2118C182.891 36.2099 183.053 36.2351 183.207 36.2863C183.358 36.3377 183.496 36.4208 183.612 36.53L183.723 36.6315V36.6518C183.795 36.7377 183.852 36.8349 183.892 36.9394C183.954 37.0967 183.985 37.2645 183.983 37.4336V37.5012C183.976 37.6649 183.935 37.8252 183.862 37.9717C183.781 38.1263 183.666 38.2597 183.524 38.3609C183.409 38.4396 183.281 38.4991 183.147 38.5368C183.007 38.5728 182.863 38.5909 182.718 38.591H182.634L180.995 38.5571L179.47 38.5301H178.158H175.862L174.752 38.547L173.487 38.5741L172.138 38.6113H172.111H172.091C171.93 38.6121 171.771 38.5823 171.622 38.5233C171.473 38.4644 171.34 38.3731 171.231 38.2559C171.125 38.1448 171.045 38.012 170.995 37.8667C170.943 37.7201 170.917 37.5655 170.917 37.4099C170.915 37.2538 170.943 37.0988 170.998 36.953C171.052 36.8094 171.136 36.679 171.244 36.5706C171.348 36.4689 171.469 36.3874 171.602 36.3303C171.736 36.2771 171.877 36.244 172.02 36.2321H172.357C172.511 36.2322 172.664 36.2198 172.816 36.1949C172.953 36.1732 173.087 36.138 173.217 36.09C173.34 36.0423 173.459 35.9834 173.571 35.914C173.684 35.8413 173.792 35.7598 173.892 35.6703C173.983 35.5896 174.064 35.4975 174.131 35.3962C174.202 35.2903 174.261 35.1768 174.307 35.0578C174.356 34.9274 174.392 34.7925 174.415 34.6551C174.443 34.4953 174.456 34.3333 174.455 34.1711V13.3374L160.792 40.1951L148.148 13.4864V34.0594C148.147 34.2388 148.163 34.4178 148.195 34.5941C148.223 34.7419 148.267 34.8861 148.327 35.0239C148.378 35.1449 148.445 35.2587 148.526 35.3624C148.611 35.4624 148.707 35.5521 148.813 35.6297C148.934 35.7219 149.063 35.8045 149.197 35.8768C149.333 35.9478 149.476 36.0067 149.622 36.0528C149.778 36.1026 149.939 36.1389 150.101 36.1611C150.279 36.186 150.458 36.1984 150.637 36.1983C150.799 36.196 150.96 36.2212 151.113 36.2727C151.263 36.3232 151.401 36.4051 151.518 36.513C151.644 36.6253 151.742 36.7655 151.804 36.9225C151.867 37.0808 151.898 37.2498 151.895 37.42C151.897 37.6032 151.856 37.7843 151.774 37.948C151.69 38.1099 151.567 38.2483 151.416 38.3507C151.295 38.4309 151.162 38.4904 151.022 38.5267C150.876 38.5654 150.727 38.5847 150.577 38.5842H149.831H149.423L149.001 38.5808H148.647H148.347H147.969H147.663L147.221 38.5605H146.772H146.226L145.396 38.5808L144.465 38.6045L143.453 38.635H143.426H143.406C143.248 38.6356 143.09 38.6093 142.941 38.5571C142.795 38.5051 142.661 38.4246 142.546 38.3202C142.426 38.2079 142.331 38.0704 142.27 37.9175C142.207 37.7639 142.176 37.5993 142.179 37.4336C142.16 37.2483 142.186 37.0612 142.256 36.8887C142.321 36.7352 142.422 36.5994 142.55 36.4927C142.655 36.4003 142.778 36.3291 142.91 36.2829C143.043 36.2335 143.181 36.2039 143.322 36.1949H143.659C143.812 36.1951 143.964 36.1827 144.114 36.1577C144.383 36.1158 144.639 36.0203 144.87 35.8768C144.989 35.8048 145.102 35.7233 145.207 35.6331C145.298 35.5515 145.378 35.4595 145.447 35.359C145.516 35.253 145.574 35.1395 145.619 35.0206C145.67 34.8908 145.708 34.7558 145.73 34.6178C145.757 34.458 145.769 34.296 145.767 34.1339V9.62488C145.769 9.46502 145.757 9.30529 145.73 9.1477C145.709 9.00996 145.672 8.87494 145.622 8.74497C145.576 8.62601 145.517 8.51251 145.447 8.40654C145.376 8.30334 145.295 8.20803 145.204 8.12226C145.1 8.02768 144.987 7.94378 144.867 7.87182C144.755 7.80111 144.636 7.74214 144.512 7.69584C144.384 7.64778 144.25 7.61264 144.114 7.59092C143.964 7.56594 143.812 7.55349 143.659 7.5537H143.322C143.164 7.55569 143.007 7.52696 142.86 7.4691C142.715 7.41212 142.584 7.32439 142.475 7.21189C142.368 7.10245 142.285 6.97081 142.233 6.82608C142.12 6.52255 142.12 6.18877 142.233 5.88525C142.292 5.73621 142.384 5.60191 142.5 5.49152C142.617 5.38113 142.755 5.29725 142.907 5.24562C143.057 5.19349 143.214 5.16718 143.372 5.16778H143.882L144.529 5.1847L145.221 5.20839L145.845 5.23885H145.888L146.226 5.25915H146.563C146.873 5.25915 147.113 5.25916 147.423 5.23208L147.926 5.21177C148.108 5.21177 148.32 5.19485 148.583 5.18809L148.577 5.20162Z" fill="#242424"/>
<path d="M213.599 35.1018C213.521 34.8457 213.419 34.5975 213.295 34.3606L210.361 28.2317H194.533L191.602 34.3606C191.477 34.5978 191.375 34.8459 191.295 35.1018C191.242 35.2702 191.215 35.4462 191.217 35.623V35.6568C191.211 35.7864 191.238 35.9156 191.297 36.031C191.357 36.1464 191.445 36.2438 191.555 36.3133C191.994 36.5315 192.483 36.6285 192.971 36.5942H193.072C193.314 36.5823 193.553 36.6553 193.747 36.8007C193.848 36.8812 193.928 36.9846 193.98 37.1023C194.033 37.22 194.057 37.3486 194.051 37.4775V37.4978C194.052 37.6228 194.021 37.746 193.963 37.8561C193.904 37.9661 193.818 38.0594 193.713 38.1273C193.53 38.242 193.316 38.2986 193.099 38.2898H193.069C192.314 38.2898 191.531 38.2492 190.83 38.2153C190.293 38.1883 189.818 38.1612 189.389 38.1612C188.961 38.1612 188.577 38.1612 188.293 38.1781C188.01 38.195 187.744 38.2052 187.541 38.2255C187.325 38.2492 187.072 38.2661 186.786 38.2796C186.499 38.2932 186.165 38.2965 185.845 38.2965C185.609 38.3127 185.373 38.256 185.17 38.1341C185.061 38.0643 184.973 37.9668 184.913 37.8515C184.854 37.7361 184.826 37.6071 184.833 37.4775C184.829 37.3554 184.852 37.2338 184.901 37.1218C184.95 37.0099 185.024 36.9105 185.116 36.8311C185.295 36.6879 185.515 36.6071 185.744 36.601H185.774C186.163 36.6013 186.55 36.5408 186.921 36.4216C187.334 36.2908 187.728 36.104 188.091 35.8666C188.483 35.6192 188.837 35.3146 189.14 34.963C189.464 34.589 189.737 34.1736 189.953 33.7278L204.354 4.11864L218.651 33.7278C218.859 34.166 219.12 34.5774 219.427 34.9529C219.711 35.2983 220.044 35.6005 220.415 35.8497C220.758 36.0864 221.131 36.2764 221.524 36.4149C221.868 36.5354 222.229 36.5982 222.594 36.601C222.853 36.5894 223.111 36.6491 223.339 36.7736C223.463 36.8441 223.565 36.9472 223.635 37.0719C223.704 37.1966 223.738 37.3381 223.734 37.4809C223.738 37.6097 223.71 37.7376 223.65 37.852C223.591 37.9664 223.504 38.0636 223.396 38.1341C223.204 38.2523 222.981 38.3101 222.755 38.2999L221.744 38.2796L219.993 38.2255C219.213 38.2052 218.517 38.1905 217.905 38.1815C217.356 38.1815 216.819 38.1646 216.283 38.1646C216.017 38.1646 215.723 38.1646 215.406 38.1815C215.089 38.1984 214.651 38.2085 214.165 38.2322L212.816 38.283C212.374 38.283 212.013 38.2999 211.74 38.2999C211.515 38.3101 211.292 38.2523 211.099 38.1341C210.992 38.0636 210.904 37.9664 210.845 37.852C210.786 37.7376 210.758 37.6097 210.762 37.4809C210.758 37.3561 210.783 37.232 210.835 37.1185C210.887 37.0051 210.965 36.9055 211.062 36.8278C211.247 36.6872 211.471 36.609 211.703 36.6044H211.845C212.343 36.6292 212.84 36.5268 213.288 36.3066C213.396 36.2414 213.484 36.1482 213.544 36.0368C213.603 35.9254 213.631 35.7999 213.626 35.6737V35.6331C213.625 35.4563 213.597 35.2806 213.545 35.1119M209.47 26.5463L203.197 13.4424L203.18 13.4051L202.506 11.5945L195.315 26.5463H209.47Z" fill="#242424"/>
<path d="M228.695 35.9242C229.245 36.1029 229.809 36.2364 230.381 36.3235C230.97 36.4153 231.565 36.4606 232.162 36.4589C232.695 36.4611 233.227 36.4089 233.75 36.3032C234.224 36.203 234.685 36.0474 235.123 35.8396C235.545 35.6321 235.94 35.3741 236.3 35.0713C236.678 34.7495 237.017 34.385 237.312 33.985C237.621 33.5607 237.889 33.1074 238.111 32.6313C238.34 32.1454 238.523 31.6389 238.657 31.1185C238.802 30.5635 238.902 29.9976 238.954 29.4264C239.01 28.7985 239.021 28.1674 238.988 27.5379C238.963 27.0242 238.909 26.5124 238.826 26.0048C238.744 25.5377 238.631 25.0764 238.489 24.6241C238.355 24.2048 238.189 23.7964 237.993 23.4023C237.799 23.0229 237.573 22.6606 237.319 22.3194V22.2991C237.091 21.9998 236.828 21.7294 236.536 21.4936C236.231 21.2507 235.898 21.0451 235.544 20.881C235.154 20.7047 234.746 20.5708 234.327 20.4817C233.872 20.3872 233.411 20.3294 232.948 20.3091H232.509C232.355 20.3101 232.202 20.2965 232.05 20.2685C231.909 20.244 231.773 20.1983 231.646 20.1331C231.468 20.0447 231.316 19.9104 231.207 19.7439C231.1 19.577 231.041 19.3839 231.035 19.1855C231.02 18.9888 231.057 18.7915 231.142 18.6134C231.226 18.4353 231.356 18.2825 231.517 18.1702C231.644 18.0792 231.786 18.0106 231.936 17.9672C232.093 17.9209 232.255 17.8937 232.418 17.8859H232.469C232.964 17.8883 233.457 17.8396 233.942 17.7404C234.379 17.6522 234.803 17.5089 235.204 17.314C235.56 17.1428 235.89 16.9205 236.182 16.6541C236.431 16.4304 236.645 16.1702 236.816 15.8824L236.86 15.8012C237.043 15.4756 237.201 15.1362 237.332 14.7859C237.458 14.4613 237.56 14.1276 237.636 13.7876C237.708 13.4529 237.757 13.1137 237.784 12.7723C237.806 12.4342 237.806 12.0951 237.784 11.757C237.764 11.3356 237.716 10.9161 237.639 10.5014C237.564 10.1136 237.459 9.73225 237.325 9.36093C237.198 9.00984 237.041 8.6702 236.856 8.34564C236.688 8.05474 236.499 7.77649 236.29 7.51311L236.222 7.43527C235.999 7.16692 235.745 6.92507 235.467 6.71442C235.196 6.51088 234.901 6.34047 234.59 6.20677C234.265 6.06562 233.926 5.96119 233.578 5.89542C233.189 5.82586 232.794 5.79188 232.398 5.79389C231.853 5.79134 231.311 5.84922 230.779 5.96649C230.298 6.07558 229.834 6.24858 229.399 6.4809C229.001 6.69651 228.636 6.97022 228.317 7.29313C228.023 7.59354 227.774 7.9356 227.578 8.30842L227.541 8.37948C227.328 8.80737 227.144 9.24951 226.991 9.70274C226.843 10.1534 226.724 10.6135 226.637 11.0801C226.548 11.5643 226.491 12.0538 226.465 12.5455C226.437 13.0641 226.437 13.5838 226.465 14.1023C226.465 14.17 226.485 14.3527 226.499 14.5186V14.5896C226.499 14.7352 226.523 14.857 226.526 14.8773C226.532 15.0171 226.514 15.1568 226.472 15.2902C226.427 15.4291 226.353 15.5571 226.256 15.6658C226.162 15.7721 226.047 15.8584 225.919 15.9197C225.788 15.9825 225.646 16.0204 225.501 16.0314H225.42C225.241 16.033 225.065 15.9899 224.907 15.9061C224.75 15.8174 224.615 15.6935 224.512 15.544C224.44 15.4395 224.382 15.3256 224.34 15.2056C224.296 15.0814 224.264 14.9534 224.243 14.8232C224.192 14.5795 224.128 14.3054 224.057 14.0042C223.986 13.703 223.919 13.4322 223.845 13.1581C223.77 12.884 223.69 12.5895 223.605 12.2951C223.521 12.0007 223.447 11.7672 223.362 11.5032L223.339 11.4253C223.224 11.0632 223.13 10.7485 223.049 10.5184C222.968 10.2882 222.877 10.0039 222.813 9.81781C222.749 9.63167 222.681 9.43877 222.614 9.26955C222.546 9.10034 222.506 8.98527 222.465 8.89728L222.442 8.83975V8.81267C222.381 8.60517 222.393 8.38295 222.475 8.1832C222.561 7.96688 222.685 7.76752 222.84 7.59433C222.967 7.44752 223.102 7.30745 223.244 7.17468C223.403 7.02239 223.582 6.85317 223.797 6.67381C224.013 6.49444 224.259 6.29815 224.519 6.1154C224.779 5.93265 225.062 5.75328 225.379 5.56714C225.696 5.38101 226.02 5.20503 226.367 5.02904C226.715 4.85306 227.089 4.6737 227.48 4.5011C227.872 4.3285 228.283 4.16267 228.698 4.03068C229.101 3.8971 229.511 3.78414 229.926 3.69225C230.332 3.59853 230.743 3.52847 231.157 3.48242C231.561 3.43543 231.967 3.41171 232.374 3.41136C233.169 3.40995 233.962 3.45402 234.752 3.54334C235.489 3.62695 236.221 3.75922 236.941 3.9393C237.631 4.11433 238.307 4.34057 238.964 4.61616C239.595 4.8796 240.204 5.19308 240.786 5.55361C241.347 5.89956 241.871 6.30457 242.347 6.7618C242.793 7.18689 243.184 7.66673 243.511 8.18997C243.83 8.7068 244.08 9.26311 244.256 9.84488C244.434 10.4448 244.538 11.0642 244.566 11.6893C244.627 12.6734 244.496 13.6598 244.179 14.593C243.866 15.4806 243.364 16.2891 242.708 16.962C242.185 17.4988 241.591 17.9621 240.944 18.3394C240.491 18.6038 240.021 18.8379 239.538 19.04L239.649 19.0806C239.986 19.2126 240.297 19.3513 240.6 19.5002C241.134 19.7636 241.643 20.0751 242.121 20.4309C242.577 20.7703 242.997 21.1547 243.376 21.5782L243.464 21.6763C243.788 22.0533 244.085 22.4537 244.351 22.8744C244.631 23.3232 244.872 23.7954 245.072 24.2856C245.273 24.7791 245.429 25.29 245.538 25.8119C245.653 26.3511 245.723 26.899 245.747 27.4499C245.788 28.2088 245.739 28.9699 245.602 29.7174C245.465 30.4488 245.238 31.1604 244.927 31.836C244.612 32.5259 244.219 33.1767 243.754 33.7752C243.252 34.4181 242.687 35.0088 242.067 35.5384C241.431 36.0888 240.742 36.574 240.01 36.9869C239.264 37.4073 238.479 37.7541 237.666 38.0224C236.818 38.3022 235.948 38.5083 235.066 38.6384C234.117 38.7774 233.16 38.8464 232.202 38.8448C231.435 38.8449 230.67 38.786 229.912 38.6688C229.186 38.5541 228.47 38.3775 227.774 38.1409C227.086 37.9074 226.421 37.6117 225.787 37.2576C225.237 36.9497 224.71 36.6001 224.212 36.2118L223.946 35.9919C223.395 35.5431 222.884 35.0471 222.418 34.5096C221.984 34.0124 221.604 33.4714 221.281 32.8953C220.971 32.3394 220.725 31.7502 220.546 31.1388C220.373 30.5289 220.27 29.9009 220.239 29.2673C220.232 29.1121 220.242 28.9565 220.27 28.8036C220.297 28.6591 220.35 28.5205 220.425 28.3941L220.604 28.0997L220.647 28.1268C220.703 28.0785 220.764 28.0365 220.829 28.0016C220.995 27.9131 221.181 27.8689 221.369 27.873C221.554 27.8715 221.738 27.9083 221.909 27.9813C222.076 28.0599 222.224 28.1756 222.34 28.3197C222.441 28.4446 222.517 28.5868 222.566 28.7394C222.617 28.9006 222.645 29.068 222.651 29.2368C222.674 29.7139 222.753 30.1864 222.887 30.6447C223.02 31.0986 223.207 31.5349 223.443 31.9443C223.7 32.382 224.003 32.7905 224.347 33.1626C224.682 33.521 225.044 33.8526 225.43 34.1542L225.602 34.2828C226.075 34.6389 226.576 34.9569 227.099 35.2338C227.608 35.5024 228.139 35.7288 228.684 35.9106" fill="#242424"/>
<path d="M246 51.4039H238.924V52.4361H246V51.4039Z" fill="#2B2A29"/>
<path d="M69.238 51.4039H62.1621V52.4327H69.238V51.4039Z" fill="#2B2A29"/>
<path d="M79.5417 54.4125C79.9035 54.764 80.3873 54.9606 80.8908 54.9606C81.3943 54.9606 81.8781 54.764 82.2399 54.4125C82.5798 54.0102 82.7663 53.4999 82.7663 52.9725C82.7663 52.4451 82.5798 51.9348 82.2399 51.5325C81.8781 51.181 81.3943 50.9845 80.8908 50.9845C80.3873 50.9845 79.9035 51.181 79.5417 51.5325C79.2018 51.9348 79.0153 52.4451 79.0153 52.9725C79.0153 53.4999 79.2018 54.0102 79.5417 54.4125ZM83.11 55.2214C82.5136 55.7944 81.7198 56.1142 80.8942 56.1142C80.0685 56.1142 79.2747 55.7944 78.6783 55.2214C78.1168 54.6087 77.8052 53.8066 77.8052 52.9742C77.8052 52.1418 78.1168 51.3398 78.6783 50.7271C79.2735 50.1517 80.0678 49.8303 80.8942 49.8303C81.7206 49.8303 82.5148 50.1517 83.11 50.7271C83.6715 51.3398 83.9831 52.1418 83.9831 52.9742C83.9831 53.8066 83.6715 54.6087 83.11 55.2214ZM85.3596 52.0977L85.4709 49.8742H89.9802V56.0742H88.7795V51.0249H86.5738L86.5131 52.1755C86.4965 53.0628 86.3776 53.9452 86.1589 54.8051C85.9026 55.6207 85.4675 56.1385 84.7121 56.1385C84.6204 56.1376 84.529 56.1285 84.4389 56.1114C84.3613 56.1114 84.2736 56.0776 84.1792 56.0539L83.8925 55.9795L84.024 54.8525L84.3916 54.9439L84.5029 54.9676C84.5242 54.9709 84.5458 54.9709 84.567 54.9676C84.8402 54.9676 85.0122 54.6697 85.1269 54.223C85.2677 53.523 85.3456 52.8117 85.3596 52.0977ZM92.7795 54.4125C93.1408 54.7648 93.6248 54.9619 94.1286 54.9619C94.6324 54.9619 95.1163 54.7648 95.4776 54.4125C95.8195 54.0111 96.0073 53.5005 96.0073 52.9725C96.0073 52.4445 95.8195 51.9339 95.4776 51.5325C95.1163 51.1802 94.6324 50.9832 94.1286 50.9832C93.6248 50.9832 93.1408 51.1802 92.7795 51.5325C92.4377 51.9339 92.2499 52.4445 92.2499 52.9725C92.2499 53.5005 92.4377 54.0111 92.7795 54.4125ZM96.3478 55.2214C95.7514 55.7944 94.9576 56.1142 94.1319 56.1142C93.3063 56.1142 92.5125 55.7944 91.9161 55.2214C91.3524 54.6097 91.0393 53.8073 91.0393 52.9742C91.0393 52.1411 91.3524 51.3387 91.9161 50.7271C92.5113 50.1517 93.3055 49.8303 94.1319 49.8303C94.9584 49.8303 95.7526 50.1517 96.3478 50.7271C96.9093 51.3398 97.2209 52.1418 97.2209 52.9742C97.2209 53.8066 96.9093 54.6087 96.3478 55.2214ZM97.2449 49.8742H102.412V51.0249H100.26V56.0742H99.0527V51.0249H96.9009V49.8742H97.2449ZM103.795 54.4125C104.156 54.7648 104.64 54.9619 105.144 54.9619C105.648 54.9619 106.132 54.7648 106.493 54.4125C106.835 54.0111 107.022 53.5005 107.022 52.9725C107.022 52.4445 106.835 51.9339 106.493 51.5325C106.132 51.1802 105.648 50.9832 105.144 50.9832C104.64 50.9832 104.156 51.1802 103.795 51.5325C103.453 51.9339 103.265 52.4445 103.265 52.9725C103.265 53.5005 103.453 54.0111 103.795 54.4125ZM107.363 55.2214C106.767 55.7944 105.973 56.1142 105.147 56.1142C104.321 56.1142 103.528 55.7944 102.931 55.2214C102.368 54.6097 102.055 53.8073 102.055 52.9742C102.055 52.1411 102.368 51.3387 102.931 50.7271C103.526 50.1517 104.321 49.8303 105.147 49.8303C105.974 49.8303 106.768 50.1517 107.363 50.7271C107.924 51.3398 108.236 52.1418 108.236 52.9742C108.236 53.8066 107.924 54.6087 107.363 55.2214ZM113.393 52.4869H115.167C115.731 52.5274 116.292 52.3721 116.756 52.0469C117.079 51.721 117.26 51.2799 117.26 50.8201C117.26 50.3604 117.079 49.9193 116.756 49.5933C116.295 49.2654 115.734 49.1087 115.171 49.15H113.387L113.393 52.4869ZM112.52 47.9892H115.167C116.03 47.9447 116.88 48.2072 117.569 48.7303C117.856 48.9968 118.085 49.32 118.242 49.6797C118.399 50.0393 118.48 50.4276 118.48 50.8201C118.48 51.2127 118.399 51.6009 118.242 51.9606C118.085 52.3202 117.856 52.6434 117.569 52.9099C116.879 53.4297 116.029 53.6918 115.167 53.6511H113.387V56.0742H112.176V47.9892H112.52ZM120.486 54.4193C120.847 54.7716 121.331 54.9687 121.835 54.9687C122.339 54.9687 122.823 54.7716 123.184 54.4193C123.526 54.0179 123.714 53.5073 123.714 52.9793C123.714 52.4513 123.526 51.9407 123.184 51.5393C122.823 51.187 122.339 50.9899 121.835 50.9899C121.331 50.9899 120.847 51.187 120.486 51.5393C120.144 51.9407 119.956 52.4513 119.956 52.9793C119.956 53.5073 120.144 54.0179 120.486 54.4193ZM124.044 55.2214C123.448 55.7944 122.654 56.1142 121.828 56.1142C121.003 56.1142 120.209 55.7944 119.613 55.2214C119.051 54.6087 118.739 53.8066 118.739 52.9742C118.739 52.1418 119.051 51.3398 119.613 50.7271C120.208 50.1517 121.002 49.8303 121.828 49.8303C122.655 49.8303 123.449 50.1517 124.044 50.7271C124.608 51.3387 124.921 52.1411 124.921 52.9742C124.921 53.8073 124.608 54.6097 124.044 55.2214ZM129.889 55.817C129.468 56.018 129.006 56.1198 128.54 56.1148C128.072 56.1106 127.61 56.0011 127.189 55.7942C126.768 55.5873 126.399 55.2884 126.109 54.9194C125.819 54.5504 125.614 54.1208 125.511 53.6622C125.408 53.2036 125.409 52.7276 125.514 52.2693C125.618 51.811 125.824 51.3821 126.116 51.0141C126.407 50.6462 126.777 50.3485 127.199 50.1431C127.62 49.9376 128.082 49.8296 128.551 49.827C129.019 49.8244 129.482 49.9273 129.906 50.128C130.315 50.3219 130.664 50.6222 130.918 50.9978L131.097 51.2652L130.172 51.942L129.973 51.6679C129.822 51.4504 129.618 51.2756 129.38 51.1602C129.016 50.9964 128.611 50.9443 128.217 51.0106C127.824 51.0768 127.458 51.2584 127.167 51.5325C126.825 51.9345 126.637 52.4457 126.637 52.9742C126.637 53.5028 126.825 54.014 127.167 54.4159C127.349 54.5964 127.565 54.7381 127.803 54.8323C128.04 54.9266 128.295 54.9714 128.55 54.9642C128.836 54.9684 129.12 54.9083 129.38 54.7882C129.617 54.6717 129.821 54.4971 129.973 54.2806L130.172 54.0064L131.1 54.6833L130.914 54.954C130.656 55.329 130.302 55.6271 129.889 55.817ZM135.673 55.817C135.082 56.0886 134.424 56.1773 133.782 56.0718C133.141 55.9663 132.545 55.6714 132.071 55.2248C131.62 54.7859 131.311 54.2209 131.185 53.6035C131.058 52.986 131.119 52.3445 131.361 51.7626C131.603 51.1806 132.013 50.6851 132.539 50.3405C133.065 49.9958 133.683 49.818 134.311 49.8302C134.783 49.8233 135.25 49.9252 135.677 50.128C136.086 50.321 136.436 50.6216 136.688 50.9978L136.867 51.2652L135.943 51.942L135.747 51.6679C135.595 51.4503 135.389 51.2755 135.15 51.1602C134.787 50.9971 134.383 50.9455 133.99 51.0117C133.597 51.0779 133.232 51.2591 132.941 51.5325C132.597 51.9335 132.408 52.4451 132.408 52.9742C132.408 53.5033 132.597 54.0149 132.941 54.4159C133.122 54.5967 133.338 54.7385 133.575 54.8328C133.812 54.927 134.066 54.9718 134.321 54.9642C134.607 54.9688 134.891 54.9086 135.15 54.7882C135.389 54.6718 135.594 54.4973 135.747 54.2806L135.943 54.0064L136.871 54.6833L136.688 54.954C136.431 55.326 136.081 55.6236 135.673 55.817ZM138.425 56.0742H137.626V49.8742H138.827V53.9929L142.257 49.8742H143.215V56.0742H142.014V51.9555L138.581 56.0742H138.425ZM145.619 56.0742H144.82V49.8742H146.021V53.9929L149.454 49.8742H150.409V56.0742H149.208V51.9555L145.778 56.0742H145.619ZM155.72 54.6731C156.066 54.9103 156.479 55.029 156.898 55.0116C157.264 55.0175 157.627 54.9448 157.963 54.7984C158.185 54.6974 158.388 54.5589 158.564 54.3888L156.631 52.3583C156.255 52.5742 155.914 52.8457 155.619 53.1637C155.434 53.3676 155.333 53.6355 155.339 53.9117C155.34 54.0596 155.374 54.2054 155.44 54.3376C155.506 54.4698 155.602 54.5847 155.72 54.6731ZM156.479 49.2583C156.404 49.3283 156.345 49.4139 156.306 49.5092C156.267 49.6044 156.249 49.707 156.253 49.8099C156.25 49.9885 156.297 50.1643 156.388 50.3176C156.525 50.542 156.685 50.7508 156.867 50.9403C157.193 50.7556 157.492 50.5279 157.758 50.2634C157.833 50.1907 157.893 50.1035 157.934 50.007C157.975 49.9104 157.997 49.8066 157.997 49.7016C158.002 49.6118 157.987 49.522 157.954 49.4385C157.921 49.355 157.87 49.2796 157.805 49.2177C157.623 49.083 157.399 49.0182 157.174 49.0349C156.925 49.0197 156.679 49.0941 156.479 49.2447V49.2583ZM160.038 54.2941L161.177 55.5023L160.409 56.3517L159.336 55.2214C159.062 55.4815 158.745 55.6912 158.398 55.8407C157.917 56.0452 157.4 56.1477 156.877 56.1419C156.184 56.163 155.503 55.9562 154.938 55.553C154.688 55.3682 154.484 55.1265 154.345 54.8477C154.205 54.5689 154.133 54.2609 154.135 53.9489C154.132 53.4403 154.311 52.9475 154.641 52.5613C154.993 52.1594 155.406 51.8166 155.866 51.546C155.652 51.3152 155.468 51.0582 155.319 50.7812C155.161 50.4823 155.081 50.1482 155.086 49.8099C155.08 49.5544 155.13 49.3006 155.233 49.0666C155.335 48.8326 155.488 48.6242 155.68 48.4562C156.103 48.1164 156.633 47.941 157.174 47.9621C157.68 47.9326 158.179 48.0864 158.581 48.3953C158.762 48.5546 158.905 48.7523 159.001 48.9742C159.097 49.196 159.142 49.4364 159.134 49.6779C159.14 50.123 158.977 50.5539 158.678 50.8827C158.375 51.2137 158.025 51.4987 157.64 51.7288L159.204 53.3905C159.235 53.3194 159.262 53.2483 159.289 53.1705C159.375 52.922 159.442 52.6675 159.491 52.409L159.565 52.0368L160.641 52.3752L160.584 52.673C160.517 53.0089 160.424 53.3392 160.307 53.6612C160.231 53.8733 160.141 54.0802 160.038 54.2806V54.2941ZM169.029 54.8254C169.294 54.7438 169.545 54.6204 169.771 54.4599V51.7356H170.962V54.9912L170.857 55.0894C170.489 55.4361 170.052 55.7013 169.575 55.8678C169.065 56.0493 168.528 56.1409 167.987 56.1385C166.874 56.1587 165.798 55.7408 164.989 54.9743C164.22 54.1927 163.788 53.1385 163.788 52.0402C163.788 50.9418 164.22 49.8876 164.989 49.106C165.799 48.3399 166.877 47.9232 167.99 47.9452C168.544 47.94 169.094 48.0363 169.613 48.2295C170.095 48.4099 170.532 48.6954 170.891 49.0654L171.113 49.2955L170.321 50.1416L170.078 49.8979C169.812 49.6317 169.491 49.4272 169.137 49.2989C168.773 49.1732 168.389 49.1125 168.004 49.1195C167.203 49.1026 166.428 49.4015 165.845 49.9521C165.299 50.5096 164.993 51.2601 164.993 52.0418C164.993 52.8236 165.299 53.5741 165.845 54.1316C166.428 54.681 167.201 54.9799 168 54.9642C168.348 54.9701 168.695 54.9234 169.029 54.8254ZM173.623 54.4125C173.984 54.764 174.468 54.9606 174.972 54.9606C175.475 54.9606 175.959 54.764 176.321 54.4125C176.661 54.0102 176.847 53.4999 176.847 52.9725C176.847 52.4451 176.661 51.9348 176.321 51.5325C175.959 51.181 175.475 50.9845 174.972 50.9845C174.468 50.9845 173.984 51.181 173.623 51.5325C173.283 51.9348 173.096 52.4451 173.096 52.9725C173.096 53.4999 173.283 54.0102 173.623 54.4125ZM177.191 55.2214C176.595 55.7944 175.801 56.1142 174.975 56.1142C174.149 56.1142 173.356 55.7944 172.759 55.2214C172.198 54.6087 171.886 53.8066 171.886 52.9742C171.886 52.1418 172.198 51.3398 172.759 50.7271C173.354 50.1517 174.149 49.8303 174.975 49.8303C175.802 49.8303 176.596 50.1517 177.191 50.7271C177.752 51.3398 178.064 52.1418 178.064 52.9742C178.064 53.8066 177.752 54.6087 177.191 55.2214ZM179.889 56.0742H179.019V47.5424H180.22V56.0742H179.889ZM182.925 54.4125C183.286 54.764 183.77 54.9606 184.274 54.9606C184.777 54.9606 185.261 54.764 185.623 54.4125C185.963 54.0102 186.149 53.4999 186.149 52.9725C186.149 52.4451 185.963 51.9348 185.623 51.5325C185.261 51.181 184.777 50.9845 184.274 50.9845C183.77 50.9845 183.286 51.181 182.925 51.5325C182.585 51.9348 182.398 52.4451 182.398 52.9725C182.398 53.4999 182.585 54.0102 182.925 54.4125ZM186.156 50.5274V47.5424H187.356V56.0742H186.166V55.4177C186.041 55.5303 185.905 55.6301 185.761 55.7155C185.301 55.9834 184.778 56.1225 184.247 56.1182C183.839 56.1251 183.434 56.0489 183.057 55.8941C182.679 55.7394 182.337 55.5094 182.051 55.218C181.496 54.6026 181.189 53.8024 181.189 52.9725C181.189 52.1427 181.496 51.3424 182.051 50.7271C182.339 50.437 182.682 50.2081 183.06 50.054C183.437 49.8999 183.842 49.8238 184.25 49.8302C184.774 49.8257 185.29 49.9624 185.744 50.2262C185.887 50.3134 186.022 50.4142 186.145 50.5274H186.156ZM192.759 54.4125C193.121 54.7648 193.605 54.9619 194.108 54.9619C194.612 54.9619 195.096 54.7648 195.457 54.4125C195.799 54.0111 195.987 53.5005 195.987 52.9725C195.987 52.4445 195.799 51.9339 195.457 51.5325C195.096 51.1802 194.612 50.9832 194.108 50.9832C193.605 50.9832 193.121 51.1802 192.759 51.5325C192.417 51.9339 192.23 52.4445 192.23 52.9725C192.23 53.5005 192.417 54.0111 192.759 54.4125ZM196.328 55.2214C195.731 55.7944 194.937 56.1142 194.112 56.1142C193.286 56.1142 192.492 55.7944 191.896 55.2214C191.332 54.6097 191.019 53.8073 191.019 52.9742C191.019 52.1411 191.332 51.3387 191.896 50.7271C192.491 50.1517 193.285 49.8303 194.112 49.8303C194.938 49.8303 195.732 50.1517 196.328 50.7271C196.889 51.3398 197.201 52.1418 197.201 52.9742C197.201 53.8066 196.889 54.6087 196.328 55.2214ZM200.513 48.6897C200.398 48.6509 200.277 48.6315 200.156 48.6322C200.061 48.622 199.965 48.6321 199.874 48.6618C199.783 48.6916 199.7 48.7403 199.629 48.8048C199.499 48.9767 199.437 49.1918 199.457 49.4072V49.8742H201.221V51.0046H199.468V56.081H198.243V51.0046H197.231V49.8742H198.243V49.3632C198.227 49.1133 198.264 48.8627 198.352 48.6284C198.44 48.3941 198.577 48.1815 198.755 48.0051C198.932 47.8286 199.145 47.6923 199.379 47.6055C199.613 47.5187 199.863 47.4833 200.112 47.5018C200.357 47.5013 200.6 47.5389 200.833 47.6135C201.052 47.6826 201.253 47.798 201.424 47.9519L201.616 48.1279L201.083 49.1432L200.746 48.8522C200.675 48.7847 200.592 48.7298 200.503 48.6897H200.513ZM205.714 49.15V52.497H207.488C208.05 52.5378 208.609 52.3811 209.07 52.0537C209.231 51.8922 209.358 51.7004 209.445 51.4893C209.533 51.2782 209.577 51.052 209.577 50.8235C209.577 50.595 209.533 50.3688 209.445 50.1577C209.358 49.9466 209.231 49.7549 209.07 49.5933C208.608 49.266 208.048 49.1093 207.484 49.15H205.714ZM209.262 53.3059L211.231 56.0742H209.795L208.024 53.6172L207.855 53.6342C207.727 53.6342 207.596 53.6342 207.464 53.6342H205.69V56.0573H204.479V47.9892H207.464C208.332 47.943 209.187 48.2068 209.879 48.7337C210.179 48.991 210.417 49.3132 210.574 49.6761C210.732 50.039 210.806 50.433 210.79 50.8286C210.806 51.4267 210.625 52.0134 210.274 52.497C210.007 52.8493 209.655 53.1277 209.252 53.3059H209.262ZM216.226 53.1536V49.8742H217.427V56.0742H216.247V55.5293C216.15 55.6114 216.046 55.685 215.936 55.7493C215.5 55.9982 215.005 56.1255 214.503 56.1182C214.149 56.1359 213.795 56.0815 213.462 55.9582C213.129 55.8349 212.825 55.6453 212.567 55.4008C212.326 55.1368 212.14 54.8272 212.02 54.4901C211.9 54.153 211.849 53.7952 211.869 53.4379V49.8742H213.07V53.3973C213.037 53.8248 213.171 54.2482 213.444 54.5784C213.591 54.7154 213.765 54.8203 213.955 54.8867C214.145 54.9531 214.346 54.9795 214.547 54.9642C214.774 54.9753 215.002 54.9386 215.214 54.8564C215.427 54.7742 215.62 54.6484 215.781 54.487C216.089 54.1136 216.244 53.6372 216.216 53.1536H216.226ZM222.5 55.6512C221.966 55.9822 221.345 56.1438 220.719 56.1148C220.261 56.1146 219.806 56.0438 219.37 55.905C218.971 55.7883 218.602 55.5875 218.287 55.3161L218.095 55.1334L218.672 54.1181L218.975 54.3787C219.21 54.5697 219.479 54.7143 219.768 54.8051C220.082 54.91 220.411 54.9637 220.742 54.9642C221.1 54.9898 221.457 54.9185 221.778 54.7577C221.86 54.7057 221.926 54.6329 221.97 54.5467C222.015 54.4605 222.036 54.364 222.031 54.267C222.031 53.8 221.383 53.6782 220.682 53.5496C219.575 53.3397 218.378 53.1164 218.378 51.6713C218.375 51.4003 218.439 51.1327 218.563 50.892C218.687 50.6513 218.868 50.4448 219.09 50.2905C219.598 49.9571 220.197 49.7925 220.803 49.8201C221.189 49.8211 221.572 49.8758 221.943 49.9825C222.284 50.0726 222.607 50.224 222.894 50.4292L223.13 50.6086L222.554 51.6239L222.25 51.4039C222.052 51.2606 221.831 51.1529 221.596 51.0858C221.335 51.0083 221.065 50.9695 220.793 50.9707C220.461 50.9494 220.13 51.0233 219.839 51.1839C219.757 51.2356 219.69 51.3077 219.644 51.3931C219.599 51.4785 219.576 51.5744 219.579 51.6713C219.579 52.1755 220.253 52.3041 220.965 52.4395C222.064 52.6493 223.228 52.8693 223.228 54.2636C223.232 54.5388 223.167 54.8104 223.037 55.0531C222.908 55.2958 222.72 55.5016 222.489 55.6512H222.5ZM227.559 55.6512C227.025 55.983 226.405 56.1447 225.778 56.1148C225.32 56.1143 224.865 56.0436 224.429 55.905C224.031 55.7883 223.663 55.5875 223.349 55.3161L223.154 55.1334L223.731 54.1181L224.038 54.3787C224.272 54.5705 224.541 54.7152 224.83 54.8051C225.143 54.9099 225.471 54.9636 225.801 54.9642C226.159 54.9902 226.517 54.9188 226.837 54.7577C226.919 54.7057 226.985 54.6329 227.029 54.5467C227.074 54.4605 227.095 54.364 227.09 54.267C227.09 53.8 226.442 53.6782 225.741 53.5496C224.631 53.3397 223.434 53.1164 223.434 51.6713C223.432 51.4004 223.496 51.1332 223.62 50.8926C223.744 50.6521 223.924 50.4454 224.145 50.2905C224.653 49.9575 225.253 49.793 225.859 49.8201C226.245 49.8214 226.63 49.876 227.002 49.9825C227.332 50.0752 227.644 50.2253 227.923 50.4259L228.159 50.6052L227.582 51.6205L227.282 51.4005C227.083 51.2585 226.862 51.1509 226.628 51.0824C226.366 51.0052 226.094 50.9664 225.822 50.9673C225.49 50.946 225.159 51.0199 224.867 51.1806C224.786 51.2327 224.719 51.3049 224.674 51.3902C224.628 51.4755 224.606 51.5711 224.607 51.6679C224.607 52.1721 225.282 52.3007 225.997 52.4361C227.093 52.6459 228.257 52.8659 228.257 54.2602C228.263 54.5347 228.2 54.8062 228.073 55.0494C227.946 55.2927 227.76 55.4997 227.532 55.6512H227.559ZM229.957 56.0742H229.093V49.8742H230.284V56.0742H229.957ZM230.236 48.9672C230.166 49.0397 230.081 49.0971 229.988 49.1361C229.895 49.175 229.795 49.1947 229.694 49.194C229.492 49.1945 229.298 49.1155 229.154 48.974C229.046 48.8667 228.973 48.7299 228.943 48.5807C228.913 48.4316 228.928 48.2769 228.986 48.1363C229.044 47.9956 229.142 47.8753 229.268 47.7907C229.394 47.7061 229.542 47.6609 229.694 47.6609C229.895 47.6607 230.089 47.7397 230.233 47.8809C230.305 47.9517 230.362 48.0363 230.401 48.1295C230.44 48.2228 230.46 48.3229 230.46 48.424C230.46 48.5252 230.44 48.6253 230.401 48.7186C230.362 48.8118 230.305 48.8964 230.233 48.9672H230.236ZM232.823 54.7577C233.096 54.9352 233.419 55.0195 233.744 54.998C234.09 55.0092 234.431 54.9186 234.726 54.7374C234.981 54.5639 235.18 54.3176 235.296 54.0301V53.3973H233.754C233.421 53.3696 233.088 53.4452 232.8 53.6139C232.716 53.6787 232.649 53.7632 232.606 53.86C232.562 53.9568 232.543 54.0629 232.55 54.1689C232.54 54.2813 232.557 54.3945 232.6 54.4988C232.643 54.6032 232.71 54.6955 232.796 54.7679L232.823 54.7577ZM232.722 50.0468C233.146 49.8966 233.592 49.8199 234.041 49.8201C234.369 49.8 234.698 49.8449 235.009 49.9523C235.319 50.0598 235.606 50.2276 235.852 50.4462C236.075 50.6821 236.248 50.9616 236.358 51.2673C236.469 51.5729 236.516 51.8982 236.496 52.2229V56.0641H235.319V55.6241C234.836 55.9599 234.257 56.1297 233.67 56.1081C233.079 56.1327 232.496 55.9562 232.017 55.6072C231.803 55.4403 231.63 55.2255 231.513 54.98C231.396 54.7344 231.338 54.4648 231.343 54.1926C231.332 53.9185 231.388 53.646 231.505 53.3983C231.623 53.1507 231.798 52.9355 232.017 52.7712C232.527 52.4346 233.132 52.272 233.741 52.3075H235.292V52.2026C235.306 52.0339 235.286 51.8642 235.233 51.7036C235.179 51.543 235.094 51.395 234.982 51.2685C234.705 51.0414 234.35 50.931 233.994 50.9606C233.681 50.9609 233.37 51.0159 233.076 51.123C232.798 51.2228 232.541 51.3756 232.321 51.5731L232.038 51.8303L231.387 50.8895L231.609 50.6898C231.929 50.4125 232.297 50.1978 232.695 50.057L232.722 50.0468ZM76.3984 51.4411C76.2919 51.5784 76.1671 51.7003 76.0274 51.8033C76.2469 51.9246 76.4451 52.0813 76.6142 52.2669C76.9514 52.6465 77.1343 53.1393 77.1269 53.6477C77.1275 53.9978 77.0441 54.3429 76.8839 54.6539C76.7236 54.9649 76.4912 55.2327 76.2061 55.4346C75.5524 55.8924 74.7704 56.1294 73.9734 56.1114C73.4345 56.1103 72.9 56.0129 72.395 55.8238C71.9044 55.6422 71.4533 55.3676 71.0662 55.0149L70.8672 54.8322L71.4372 53.8507L71.7441 54.1418C72.0264 54.4041 72.3577 54.6077 72.7188 54.7408C73.0991 54.8854 73.5026 54.9588 73.9094 54.9574C74.437 54.9754 74.957 54.8275 75.3967 54.5344C75.5525 54.4288 75.6803 54.2867 75.769 54.1204C75.8577 53.9541 75.9048 53.7686 75.906 53.58C75.9125 53.4204 75.8789 53.2617 75.8081 53.1185C75.7374 52.9754 75.6319 52.8524 75.5013 52.761C75.0956 52.5148 74.6255 52.3969 74.1522 52.4226H72.2972V51.2821H74.1286C74.5227 51.308 74.9145 51.2046 75.2449 50.9876C75.3562 50.8994 75.4448 50.7859 75.5035 50.6564C75.5621 50.5269 75.5891 50.3852 75.5822 50.2431C75.5795 50.0791 75.538 49.9182 75.4612 49.7734C75.3844 49.6287 75.2745 49.5043 75.1404 49.4106C74.7549 49.1527 74.2981 49.0236 73.8352 49.0417C73.4922 49.0408 73.151 49.0922 72.8233 49.194C72.4927 49.2938 72.178 49.4408 71.8891 49.6305L71.5518 49.8505L71.0932 48.7777L71.3427 48.622C71.7199 48.3871 72.1273 48.2049 72.5535 48.0805C72.9746 47.9588 73.4105 47.8962 73.8486 47.8944C74.596 47.8733 75.3303 48.094 75.9431 48.5239C76.2114 48.7158 76.4296 48.9699 76.5793 49.2644C76.729 49.559 76.8058 49.8854 76.8031 50.216C76.8092 50.6584 76.6666 51.09 76.3984 51.4411Z" fill="#2B2A29"/>
</svg>
