<svg width="32" height="32" viewBox="0 0 32 32" fill="none" xmlns="http://www.w3.org/2000/svg">
<circle cx="16" cy="16" r="16" fill="#2FC6F6"/>
<circle cx="16" cy="16" r="16" fill="url(#paint0_linear_595_22426)"/>
<path fill-rule="evenodd" clip-rule="evenodd" d="M6.97719 16.9856L10.4813 18.1273C10.5404 18.1376 10.601 18.1339 10.6584 18.1166L10.6606 18.1152C11.4686 17.6049 18.6783 13.0521 19.0945 12.8989C19.1601 12.8791 19.2089 12.9014 19.196 12.9468C19.0291 13.5321 12.7562 19.1079 12.7562 19.1079C12.7562 19.1079 12.7307 19.137 12.7156 19.1728L12.7091 19.1689L12.382 22.6443C12.382 22.6443 12.2452 23.7091 13.3098 22.6443C14.06 21.8939 14.7876 21.2645 15.1519 20.9582C16.3565 21.7899 17.6531 22.7101 18.2124 23.1912C18.3061 23.2822 18.4172 23.3533 18.539 23.4004C18.6608 23.4476 18.7908 23.4697 18.9214 23.4655C19.4525 23.4455 19.6007 22.862 19.6007 22.862C19.6007 22.862 22.0785 12.8918 22.1613 11.5559C22.1645 11.5052 22.1681 11.4617 22.1713 11.4221C22.1765 11.3595 22.1808 11.3068 22.1815 11.2517C22.1858 11.1477 22.1756 11.0436 22.1511 10.9424C22.1387 10.8851 22.1112 10.8322 22.0716 10.789C22.032 10.7458 21.9816 10.7139 21.9256 10.6965C21.6992 10.6105 21.3153 10.7398 21.3153 10.7398C21.3153 10.7398 7.72094 15.626 6.94452 16.1672C6.77701 16.2834 6.72102 16.351 6.69326 16.4304C6.55841 16.8157 6.97719 16.9856 6.97719 16.9856Z" fill="white"/>
<defs>
<linearGradient id="paint0_linear_595_22426" x1="16" y1="32" x2="16" y2="0" gradientUnits="userSpaceOnUse">
<stop stop-color="#1D93D2"/>
<stop offset="1" stop-color="#38B0E3"/>
</linearGradient>
</defs>
</svg>
