<svg width="26" height="35" viewBox="0 0 26 35" fill="none" xmlns="http://www.w3.org/2000/svg">
<g clip-path="url(#clip0_2715_2007)">
<path d="M26 33.7063H0V9.42059H26V33.7063ZM1.625 32.0873H24.375V11.0396H1.625V32.0873Z" fill="#242424"/>
<path d="M21.5769 11.0396H4.42504L4.28367 10.4066C4.14465 9.82892 4.07161 9.23745 4.06592 8.64344C4.06592 4.00163 8.07317 0.224396 13.0002 0.224396C17.9288 0.224396 21.9377 4.00163 21.9377 8.64344C21.9377 9.18582 21.8694 9.74763 21.7199 10.4066L21.5769 11.0396ZM5.74942 9.42059H20.2542C20.2948 9.14373 20.3143 8.88954 20.3143 8.64344C20.3127 4.89373 17.0302 1.84344 13.0002 1.84344C8.97017 1.84344 5.69254 4.89373 5.69254 8.64344C5.69092 8.88954 5.70717 9.14373 5.74942 9.42059Z" fill="#242424"/>
</g>
<defs>
<clipPath id="clip0_2715_2007">
<rect width="26" height="34" fill="white" transform="translate(0 0.224396)"/>
</clipPath>
</defs>
</svg>
