<svg width="14" height="10" viewBox="0 0 14 10" fill="none" xmlns="http://www.w3.org/2000/svg">
<g opacity="0.6">
<path d="M12.8334 1V3.4535C12.4517 3.50501 12.1016 3.69322 11.8481 3.98323C11.5946 4.27324 11.4549 4.64535 11.4549 5.03054C11.4549 5.41573 11.5946 5.78784 11.8481 6.07785C12.1016 6.36786 12.4517 6.55608 12.8334 6.60758V9.16667H1.16675V6.621C1.58864 6.621 1.99325 6.4534 2.29158 6.15508C2.5899 5.85676 2.7575 5.45214 2.7575 5.03025C2.7575 4.60836 2.5899 4.20374 2.29158 3.90542C1.99325 3.6071 1.58864 3.4395 1.16675 3.4395V1H12.8334Z" stroke="black"/>
<path fill-rule="evenodd" clip-rule="evenodd" d="M4.64995 6.56891L8.50695 2.71191L9.35045 3.55541L5.49345 7.41241L4.64995 6.56891ZM5.31262 4.03783C5.48844 4.03783 5.65707 3.96798 5.7814 3.84365C5.90573 3.71933 5.97557 3.5507 5.97557 3.37487C5.97557 3.19904 5.90573 3.03042 5.7814 2.90609C5.65707 2.78176 5.48844 2.71191 5.31262 2.71191C5.13679 2.71191 4.96816 2.78176 4.84383 2.90609C4.71951 3.03042 4.64966 3.19904 4.64966 3.37487C4.64966 3.5507 4.71951 3.71933 4.84383 3.84365C4.96816 3.96798 5.13679 4.03783 5.31262 4.03783ZM8.68778 7.41241C8.86353 7.41241 9.03208 7.3426 9.15636 7.21832C9.28063 7.09405 9.35045 6.9255 9.35045 6.74975C9.35045 6.574 9.28063 6.40545 9.15636 6.28117C9.03208 6.1569 8.86353 6.08708 8.68778 6.08708C8.51203 6.08708 8.34348 6.1569 8.21921 6.28117C8.09493 6.40545 8.02512 6.574 8.02512 6.74975C8.02512 6.9255 8.09493 7.09405 8.21921 7.21832C8.34348 7.3426 8.51203 7.41241 8.68778 7.41241Z" fill="black"/>
</g>
</svg>
