<svg width="16" height="16" viewBox="0 0 16 16" fill="none" xmlns="http://www.w3.org/2000/svg">
<path fill-rule="evenodd" clip-rule="evenodd" d="M3.33333 14H6C6.35362 14 6.69276 13.8595 6.94281 13.6095C7.19286 13.3594 7.33333 13.0203 7.33333 12.6667V10.2107H8.66667V12.6667C8.66667 13.0203 8.80714 13.3594 9.05719 13.6095C9.30724 13.8595 9.64638 14 10 14H12.6667C13.0203 14 13.3594 13.8595 13.6095 13.6095C13.8595 13.3594 14 13.0203 14 12.6667V7.38333C14.0001 7.18193 13.9545 6.98313 13.8668 6.80186C13.779 6.62058 13.6514 6.46154 13.4933 6.33667L8.82667 2.65267C8.59127 2.46666 8.30002 2.36547 8 2.36547C7.69998 2.36547 7.40873 2.46666 7.17333 2.65267L2.50667 6.33667C2.34865 6.46154 2.22097 6.62058 2.13322 6.80186C2.04547 6.98313 1.99992 7.18193 2 7.38333V12.6667C2 13.0203 2.14048 13.3594 2.39052 13.6095C2.64057 13.8595 2.97971 14 3.33333 14ZM3.33333 12.6667H6V10C6 9.64638 6.14048 9.30724 6.39052 9.05719C6.64057 8.80714 6.97971 8.66667 7.33333 8.66667H8.66667C9.02029 8.66667 9.35943 8.80714 9.60948 9.05719C9.85952 9.30724 10 9.64638 10 10V12.6667H12.6667V7.33333L8 3.66667L3.33333 7.33333V12.6667Z" fill="#808080"/>
</svg>
