<svg width="25" height="25" viewBox="0 0 25 25" fill="none" xmlns="http://www.w3.org/2000/svg">
<g clip-path="url(#clip0_595_18433)">
<g opacity="0.9">
<path d="M12.5 3.34597C14.9 3.34597 16.8637 5.3096 16.8637 7.70961C16.8637 10.0005 14.5728 13.7096 12.5 16.3278C10.4273 13.6005 8.13641 10.0005 8.13641 7.70961C8.13641 5.3096 10.1 3.34597 12.5 3.34597ZM12.5 1.16415C8.90004 1.16415 5.95459 4.1096 5.95459 7.70961C5.95459 12.6187 12.5 19.7096 12.5 19.7096C12.5 19.7096 19.0455 12.5096 19.0455 7.70961C19.0455 4.1096 16.1 1.16415 12.5 1.16415ZM12.5 5.52779C11.3 5.52779 10.3182 6.5096 10.3182 7.70961C10.3182 8.90961 11.3 9.89142 12.5 9.89142C13.7 9.89142 14.6819 8.90961 14.6819 7.70961C14.6819 6.5096 13.7 5.52779 12.5 5.52779Z" fill="#257AE8"/>
<path d="M24.5 22.9823H0.5L3.77273 16.4369H8.13636L8.68182 17.5278H4.59091L3.22727 21.346H21.7727L20.4091 17.5278H16.3182L16.8636 16.4369H21.2273L24.5 22.9823Z" fill="#257AE8"/>
</g>
</g>
<defs>
<clipPath id="clip0_595_18433">
<rect width="24" height="24" fill="white" transform="translate(0.5 0.0732422)"/>
</clipPath>
</defs>
</svg>
