<svg width="195" height="75" viewBox="0 0 195 75" fill="none" xmlns="http://www.w3.org/2000/svg">
<path fill-rule="evenodd" clip-rule="evenodd" d="M10.9348 0.119751C3.7014 0.119751 -1.30492 7.34504 1.23589 14.1175L21.3155 67.6388C22.8321 71.6812 26.6969 74.3591 31.0144 74.3591H184.52C192.241 74.3591 197.249 66.2163 193.765 59.326L166.704 5.80465C164.941 2.31797 161.367 0.119751 157.46 0.119751H10.9348ZM16.9642 17.8726C20.0838 17.8726 22.6128 15.3436 22.6128 12.224C22.6128 9.10433 20.0838 6.57534 16.9642 6.57534C13.8445 6.57534 11.3155 9.10433 11.3155 12.224C11.3155 15.3436 13.8445 17.8726 16.9642 17.8726Z" fill="#FFF957"/>
</svg>
