<svg width="1440" height="12" viewBox="0 0 1440 12" fill="none" xmlns="http://www.w3.org/2000/svg">
<g clip-path="url(#clip0_1752_25692)">
<path d="M0.046875 5.55199L647.238 4.76099" stroke="#E6E6E6"/>
<path d="M708.899 4.24264L706.07 1.41421C705.289 0.633165 704.023 0.633165 703.242 1.41421L700.414 4.24264C699.633 5.02369 699.633 6.29002 700.414 7.07107L703.242 9.89949C704.023 10.6805 705.289 10.6805 706.07 9.89949L708.899 7.07107C709.68 6.29002 709.68 5.02369 708.899 4.24264Z" fill="#E6E6E6"/>
<path d="M724.211 4.24264L721.383 1.41421C720.602 0.633165 719.336 0.633165 718.555 1.41421L715.726 4.24264C714.945 5.02369 714.945 6.29002 715.726 7.07107L718.555 9.89949C719.336 10.6805 720.602 10.6805 721.383 9.89949L724.211 7.07107C724.992 6.29002 724.992 5.02369 724.211 4.24264Z" fill="#E6E6E6"/>
<path d="M739.528 4.24264L736.699 1.41421C735.918 0.633165 734.652 0.633165 733.871 1.41421L731.043 4.24264C730.261 5.02369 730.261 6.29002 731.043 7.07107L733.871 9.89949C734.652 10.6805 735.918 10.6805 736.699 9.89949L739.528 7.07107C740.309 6.29002 740.309 5.02369 739.528 4.24264Z" fill="#E6E6E6"/>
<path d="M792.758 5.62599L1439.95 4.68799" stroke="#E6E6E6"/>
</g>
<defs>
<clipPath id="clip0_1752_25692">
<rect width="1440" height="12" fill="white"/>
</clipPath>
</defs>
</svg>
