<svg width="14" height="13" viewBox="0 0 14 13" fill="none" xmlns="http://www.w3.org/2000/svg">
<path d="M12.8704 6.39072H4.63378M1.72644 6.39072H0.537109M1.72644 6.39072C1.72644 6.00527 1.87956 5.63561 2.15211 5.36306C2.42467 5.09051 2.79433 4.93739 3.17978 4.93739C3.56522 4.93739 3.93489 5.09051 4.20744 5.36306C4.47999 5.63561 4.63311 6.00527 4.63311 6.39072C4.63311 6.77617 4.47999 7.14583 4.20744 7.41838C3.93489 7.69094 3.56522 7.84406 3.17978 7.84406C2.79433 7.84406 2.42467 7.69094 2.15211 7.41838C1.87956 7.14583 1.72644 6.77617 1.72644 6.39072ZM12.8704 10.7954H9.03844M9.03844 10.7954C9.03844 11.1809 8.88496 11.551 8.61234 11.8236C8.33972 12.0962 7.96998 12.2494 7.58444 12.2494C7.19899 12.2494 6.82933 12.0956 6.55678 11.8231C6.28423 11.5505 6.13111 11.1808 6.13111 10.7954M9.03844 10.7954C9.03844 10.4099 8.88496 10.0404 8.61234 9.76782C8.33972 9.49521 7.96998 9.34206 7.58444 9.34206C7.19899 9.34206 6.82933 9.49517 6.55678 9.76773C6.28423 10.0403 6.13111 10.4099 6.13111 10.7954M6.13111 10.7954H0.537109M12.8704 1.98606H10.8004M7.89311 1.98606H0.537109M7.89311 1.98606C7.89311 1.60061 8.04623 1.23095 8.31878 0.958394C8.59133 0.685841 8.96099 0.532722 9.34644 0.532722C9.5373 0.532722 9.72628 0.570314 9.90261 0.643351C10.0789 0.716388 10.2391 0.823439 10.3741 0.958394C10.5091 1.09335 10.6161 1.25356 10.6891 1.42989C10.7622 1.60622 10.7998 1.7952 10.7998 1.98606C10.7998 2.17691 10.7622 2.3659 10.6891 2.54222C10.6161 2.71855 10.5091 2.87876 10.3741 3.01372C10.2391 3.14867 10.0789 3.25572 9.90261 3.32876C9.72628 3.4018 9.5373 3.43939 9.34644 3.43939C8.96099 3.43939 8.59133 3.28627 8.31878 3.01372C8.04623 2.74116 7.89311 2.3715 7.89311 1.98606Z" stroke="white" stroke-miterlimit="10" stroke-linecap="round"/>
</svg>
