<svg width="20" height="19" viewBox="0 0 20 19" fill="none" xmlns="http://www.w3.org/2000/svg">
<path fill-rule="evenodd" clip-rule="evenodd" d="M4 4.16649C3.9999 3.47117 4.2069 2.79158 4.59461 2.21439C4.98232 1.63719 5.53317 1.18856 6.17689 0.925708C6.82061 0.662854 7.52804 0.597693 8.20894 0.738534C8.88985 0.879374 9.51338 1.21983 10 1.71649C10.5793 1.12436 11.3498 0.756877 12.1746 0.679408C12.9993 0.601938 13.8248 0.819501 14.5042 1.2934C15.1836 1.7673 15.6729 2.46683 15.8851 3.26756C16.0973 4.06829 16.0186 4.91833 15.663 5.66649H18C18.5304 5.66649 19.0391 5.87721 19.4142 6.25228C19.7893 6.62735 20 7.13606 20 7.66649V16.6665C20 17.1969 19.7893 17.7056 19.4142 18.0807C19.0391 18.4558 18.5304 18.6665 18 18.6665H2C1.46957 18.6665 0.960859 18.4558 0.585786 18.0807C0.210714 17.7056 0 17.1969 0 16.6665V7.66649C0 7.13606 0.210714 6.62735 0.585786 6.25228C0.960859 5.87721 1.46957 5.66649 2 5.66649H4.337C4.11488 5.19765 3.99977 4.68529 4 4.16649ZM12.5 7.66649H2V16.6665H18V7.66649H12.5ZM9 5.66649V4.16649C9 3.86982 8.91203 3.57981 8.7472 3.33314C8.58238 3.08646 8.34811 2.8942 8.07403 2.78067C7.79994 2.66714 7.49834 2.63744 7.20736 2.69531C6.91639 2.75319 6.64912 2.89605 6.43934 3.10583C6.22956 3.31561 6.0867 3.58288 6.02882 3.87386C5.97094 4.16483 6.00065 4.46643 6.11418 4.74052C6.22771 5.01461 6.41997 5.24887 6.66665 5.4137C6.91332 5.57852 7.20333 5.66649 7.5 5.66649H9ZM12.5 5.66649C12.7967 5.66649 13.0867 5.57852 13.3334 5.4137C13.58 5.24887 13.7723 5.01461 13.8858 4.74052C13.9994 4.46643 14.0291 4.16483 13.9712 3.87386C13.9133 3.58288 13.7704 3.31561 13.5607 3.10583C13.3509 2.89605 13.0836 2.75319 12.7926 2.69531C12.5017 2.63744 12.2001 2.66714 11.926 2.78067C11.6519 2.8942 11.4176 3.08646 11.2528 3.33314C11.088 3.57981 11 3.86982 11 4.16649V5.66649H12.5ZM14 12.6665V14.6665H4V12.6665H14Z" fill="#408BEB"/>
</svg>
