<svg width="23" height="24" viewBox="0 0 23 24" fill="none" xmlns="http://www.w3.org/2000/svg">
<path d="M14.5803 3.87433L11.6627 5.36341L15.6931 6.90394L14.5803 3.87433ZM18.0537 12.3202L16.4084 16.3488L19.308 15.19L18.0537 12.3202ZM16.3003 16.713L15.1425 20.1649L19.2501 20.0715L19.3787 15.4838L16.3003 16.713ZM14.7103 20.3057L11.6293 18.9723L8.58432 20.4411L11.7541 23.399L14.7103 20.3057ZM11.9831 18.8017L14.8788 20.0539L15.9452 16.8808L11.9831 18.8017ZM22.4803 11.8707L19.5447 8.68137L18.2081 11.9546L19.5459 15.0168L22.4803 11.8707ZM6.7756 16.5911L5.06594 12.2376L3.59041 15.3064L3.60842 15.3132C4.67744 15.7329 5.72974 16.1593 6.7756 16.5911ZM3.74221 20.1703L8.07361 20.2367L6.90167 16.9214L3.62 15.634L3.74221 20.1703ZM7.21556 17.0568C7.60149 18.0951 7.98742 19.1402 8.36434 20.215L11.2691 18.8166L7.21556 17.0568ZM19.308 8.4905L16.209 7.37639L18.046 11.5797L19.308 8.4905ZM3.22764 8.81539L0.526148 12.0981L3.35628 15.1075L4.91286 11.8707L4.89871 11.8355L3.22764 8.81539ZM6.68427 7.38451L3.4682 8.65159L5.06337 11.5188L6.68427 7.38451ZM11.3386 5.55023L6.97757 7.26538C6.43213 8.76936 5.86867 10.2436 5.23189 11.868C5.8751 13.5209 6.49388 15.1169 7.09464 16.7157C8.61004 17.3438 10.1113 17.9841 11.6216 18.6339L16.0379 16.4937L17.8955 11.9452L15.8539 7.27351L11.3386 5.55023ZM8.37977 3.45468L11.381 5.16442L14.3809 3.64555L11.2524 0.553669L8.37977 3.45468ZM11.0645 5.32551L8.21897 3.70105C7.84462 4.81922 7.48185 5.867 7.11265 6.8904L10.9591 5.37695L11.0645 5.32551ZM3.44633 3.55891L7.06633 1.00175L7.14352 0.966552L11.4222 0H11.5148L15.7201 0.939478L15.7896 0.96926L19.6283 3.44249L19.6952 3.50883L19.8058 3.67804L19.8161 3.68481L22.0326 7.0691L22.0673 7.15438L23 11.9303V12.0223L22.1767 16.4165L22.1445 16.4991L19.829 20.2665L19.7698 20.3314L16.1987 22.9306L16.1215 22.9658L11.8068 24H11.7168L7.21427 23.1133L7.13323 23.0795L3.4026 20.5074L3.33827 20.4411L0.972538 16.6886L0.941663 16.6101L0 12.1834V12.0887L0.841322 7.5808L0.876056 7.49416L3.38458 3.62254L3.44633 3.55891ZM10.7687 0.622709L7.42396 1.38079L8.18166 3.24891L10.7687 0.622709ZM15.459 1.35371L11.5997 0.491399L14.6511 3.50747L14.6935 3.48446L15.459 1.35371ZM19.1999 3.70647L19.1857 3.69699L14.8569 3.7904L16.0327 6.98517L16.0392 6.9987L19.3427 8.18726L19.1999 3.70647ZM21.5258 7.11377L19.4945 4.01376L19.6321 8.14665L21.5258 7.11377ZM21.6467 7.31683V7.2911L21.6158 7.24508L21.6467 7.31683ZM22.4417 11.3942L21.6595 7.3791L19.7209 8.43635L22.4417 11.3942ZM21.7985 16.0144L22.4996 12.2728L19.7338 15.2374L21.7985 16.0144ZM19.5395 19.8712L21.7264 16.3095L19.6566 15.5298L19.5395 19.8712ZM16.1948 22.3593L18.913 20.3802L15.2055 20.4641L16.1948 22.3593ZM12.1065 23.4423L15.9555 22.5204L14.9058 20.5061L12.1065 23.4423ZM7.48957 22.6923L11.3874 23.4599L8.36176 20.636L7.48957 22.6923ZM4.14486 20.4722L7.22842 22.5935L8.09933 20.5372L4.14486 20.4722ZM1.35589 16.4246L1.36361 16.4666L3.44633 19.7805L3.33313 15.584L1.38805 16.5018L1.35589 16.4246ZM0.522289 12.5151L1.30958 16.2107L3.17104 15.3295L0.522289 12.5151ZM1.22982 7.91517L0.53258 11.6419L2.99608 8.64347L1.22982 7.91517ZM3.22378 4.69603L1.32245 7.63089L3.10543 8.36595L3.22378 4.69603ZM3.76537 3.89193L3.72677 3.92036L3.52352 4.23306L3.39488 8.36325L6.81805 7.00953L7.92953 3.68075L3.76537 3.89193ZM7.15638 1.49721L4.21819 3.56974L7.92309 3.38564L7.15638 1.49721ZM13.6721 13.9636C13.7368 14.0797 13.7734 14.2108 13.7789 14.3453C13.7789 14.5876 13.5872 14.7095 13.2013 14.7095C13.1203 14.7095 13.0727 14.7501 13.0727 14.815C13.0727 14.88 13.1151 14.9057 13.2013 14.9057C13.3531 14.9057 13.5473 14.899 13.7853 14.8882C14.0233 14.8773 14.1931 14.8706 14.3089 14.8706C14.537 14.8706 14.8402 14.8755 15.2184 14.8854C15.6043 14.899 15.8205 14.9057 15.8874 14.9057C15.9542 14.9057 16.016 14.876 16.016 14.815C16.016 14.7541 15.9594 14.7095 15.85 14.7095C15.6358 14.7027 15.4284 14.6286 15.2544 14.4969C15.0503 14.3482 14.8881 14.1443 14.7849 13.9067L11.3939 6.5425L7.9797 13.9067C7.8707 14.15 7.69913 14.3564 7.48442 14.5023C7.29896 14.6336 7.08138 14.7055 6.85793 14.7095C6.77946 14.7095 6.74087 14.7501 6.74087 14.815C6.74087 14.88 6.78332 14.9057 6.86951 14.9057C7.03546 14.9057 7.17053 14.899 7.27216 14.8882C7.42658 14.874 7.58158 14.8681 7.73656 14.8706C7.95911 14.8706 8.29616 14.903 8.63706 14.903C8.71682 14.903 8.7657 14.876 8.7657 14.815C8.7657 14.7541 8.72196 14.7095 8.63706 14.7095C8.25756 14.7095 8.06589 14.593 8.06589 14.3453C8.07137 14.2108 8.10803 14.0797 8.17266 13.9636L8.91879 12.3283H12.9299L13.6721 13.9636ZM11.2202 8.60556L12.8372 12.1333H9.01656L10.9681 7.87997L11.2202 8.60556ZM15.7227 1.46472L14.9933 3.49529L18.7342 3.40865L15.7227 1.46472Z" fill="#242424"/>
</svg>
