<svg width="18" height="18" viewBox="0 0 18 18" fill="none" xmlns="http://www.w3.org/2000/svg">
<path fill-rule="evenodd" clip-rule="evenodd" d="M2 18H6C6.53043 18 7.03914 17.7893 7.41421 17.4142C7.78929 17.0391 8 16.5304 8 16V12.316H10V16C10 16.5304 10.2107 17.0391 10.5858 17.4142C10.9609 17.7893 11.4696 18 12 18H16C16.5304 18 17.0391 17.7893 17.4142 17.4142C17.7893 17.0391 18 16.5304 18 16V8.075C18.0001 7.7729 17.9318 7.4747 17.8002 7.20278C17.6685 6.93087 17.477 6.6923 17.24 6.505L10.24 0.978999C9.88691 0.699981 9.45003 0.548203 9 0.548203C8.54997 0.548203 8.11309 0.699981 7.76 0.978999L0.76 6.505C0.522972 6.6923 0.331455 6.93087 0.199827 7.20278C0.0681985 7.4747 -0.000120116 7.7729 1.58531e-07 8.075V16C1.58531e-07 16.5304 0.210714 17.0391 0.585787 17.4142C0.960859 17.7893 1.46957 18 2 18ZM2 16H6V12C6 11.4696 6.21071 10.9609 6.58579 10.5858C6.96086 10.2107 7.46957 10 8 10H10C10.5304 10 11.0391 10.2107 11.4142 10.5858C11.7893 10.9609 12 11.4696 12 12V16H16V8L9 2.5L2 8V16Z" fill="#808080"/>
</svg>
