<svg width="28" height="26" viewBox="0 0 28 26" fill="none" xmlns="http://www.w3.org/2000/svg">
<path fill-rule="evenodd" clip-rule="evenodd" d="M25.9988 8.11734C25.9988 3.54388 23.0306 2.58242 20.5301 2.58242C18.2038 2.58242 15.5775 5.20457 14.7657 6.21191C14.3902 6.6839 13.6098 6.6839 13.2343 6.21191C12.4225 5.20239 9.79622 2.58242 7.46779 2.58242C4.96734 2.58242 1.9991 3.54388 1.9991 8.11734C1.9991 11.0957 4.88972 13.862 4.92119 13.8948L14 23.009L23.062 13.9123C23.1082 13.862 25.9988 11.0957 25.9988 8.11734ZM28 8.11734C28 12.0243 24.5619 15.2955 24.4213 15.4419L14.688 25.2072C14.5013 25.4017 14.2496 25.5 14 25.5C13.7504 25.5 13.5007 25.4017 13.312 25.2072L3.56188 15.4091C3.43812 15.2955 0 12.0243 0 8.11734C0 3.3494 2.79622 0.5 7.46779 0.5C10.2032 0.5 12.7666 2.74631 14 4.01586C15.2334 2.74631 17.7968 0.5 20.5301 0.5C25.2017 0.5 27.9979 3.34722 27.9979 8.11734H28Z" fill="#242424"/>
</svg>
