<svg width="25" height="25" viewBox="0 0 25 25" fill="none" xmlns="http://www.w3.org/2000/svg">
<path d="M3.3479 5.92578L6.08208 10.8958V13.9274L3.3511 18.8876L3.3479 5.92578Z" fill="#5B57A2"/>
<path d="M13.8459 9.08832L16.4079 7.49141L21.6513 7.48633L13.8459 12.349V9.08832Z" fill="#D90751"/>
<path d="M13.8313 5.89819L13.8458 12.4783L11.1052 10.7658V0.929688L13.8313 5.89819Z" fill="#FAB718"/>
<path d="M21.6512 7.48694L16.4076 7.49203L13.8313 5.89817L11.1052 0.929688L21.6512 7.48694Z" fill="#ED6F26"/>
<path d="M13.8458 18.9154V15.7229L11.1052 14.043L11.1066 23.8889L13.8458 18.9154Z" fill="#63B22F"/>
<path d="M16.4017 17.3328L6.08192 10.8958L3.3479 5.92578L21.6404 17.3263L16.4017 17.3328Z" fill="#1487C9"/>
<path d="M11.1067 23.8905L13.8454 18.917L16.401 17.3347L21.6397 17.3281L11.1067 23.8905Z" fill="#017F36"/>
<path d="M3.35132 18.8881L11.1281 14.0435L8.51358 12.4121L6.08229 13.9279L3.35132 18.8881Z" fill="#984995"/>
</svg>
